<svg xmlns="http://www.w3.org/2000/svg" xmlns:xlink="http://www.w3.org/1999/xlink" width="2000" zoomAndPan="magnify" viewBox="0 0 1500 1499.999933" height="2000" preserveAspectRatio="xMidYMid meet" version="1.0"><defs><clipPath id="bdd69a0572"><path d="M 450 455.25 L 1050 455.25 L 1050 1044.75 L 450 1044.75 Z M 450 455.25 " clip-rule="nonzero"/></clipPath></defs><g clip-path="url(#bdd69a0572)"><path fill="#d4a35c" d="M 477.78125 590.015625 L 531.003906 590.015625 C 527.152344 584.363281 523.988281 578.292969 521.566406 571.949219 C 516.394531 558.421875 514.574219 543.585938 516.589844 528.734375 C 518.601562 513.882812 524.316406 500.066406 532.910156 488.402344 C 541.542969 476.679688 553.046875 467.109375 566.59375 460.792969 L 566.609375 460.828125 L 567.5625 460.445312 C 591.894531 452.015625 617.40625 453.796875 644.078125 465.777344 C 668.746094 476.863281 694.386719 496.734375 720.976562 525.386719 L 776.925781 525.386719 C 803.515625 496.734375 829.15625 476.863281 853.824219 465.777344 C 880.496094 453.796875 906.007812 452.015625 930.339844 460.445312 L 931.292969 460.828125 L 931.308594 460.792969 C 944.855469 467.109375 956.359375 476.679688 964.992188 488.402344 C 973.585938 500.066406 979.300781 513.882812 981.3125 528.734375 C 983.328125 543.585938 981.503906 558.421875 976.332031 571.949219 C 973.910156 578.292969 970.746094 584.359375 966.898438 590.015625 L 1022.222656 590.015625 C 1029.824219 590.015625 1036.726562 593.121094 1041.722656 598.121094 C 1046.71875 603.117188 1049.824219 610.023438 1049.824219 617.621094 L 1049.824219 698.296875 C 1049.824219 705.871094 1046.71875 712.761719 1041.722656 717.761719 L 1041.6875 717.796875 C 1037.433594 722.050781 1031.804688 724.933594 1025.554688 725.695312 L 1025.554688 1001.132812 C 1025.554688 1013.109375 1020.636719 1024.015625 1012.71875 1031.945312 L 1012.738281 1031.960938 C 1004.832031 1039.867188 993.917969 1044.777344 981.910156 1044.777344 L 518.09375 1044.777344 C 506.109375 1044.777344 495.207031 1039.867188 487.296875 1031.960938 L 487.261719 1031.960938 C 479.355469 1024.054688 474.449219 1013.140625 474.449219 1001.132812 L 474.449219 725.695312 C 468.171875 724.9375 462.535156 722.050781 458.28125 717.796875 C 453.28125 712.800781 450.175781 705.898438 450.175781 698.296875 L 450.175781 617.621094 C 450.175781 610.066406 453.28125 603.175781 458.28125 598.15625 L 458.339844 598.097656 C 463.351562 593.113281 470.238281 590.015625 477.78125 590.015625 Z M 791.207031 539.167969 L 791.207031 583.863281 C 794.429688 582.164062 797.832031 580.347656 801.375 578.457031 C 844.46875 555.449219 906.636719 522.253906 938.246094 549.503906 C 945.742188 555.964844 951.066406 564.257812 953.886719 573.300781 C 955.375 570.582031 956.675781 567.769531 957.777344 564.882812 C 961.800781 554.355469 963.222656 542.851562 961.667969 531.375 C 960.109375 519.902344 955.675781 509.195312 948.996094 500.125 C 942.382812 491.148438 933.527344 483.78125 923.0625 478.875 C 903.917969 472.488281 883.527344 474.15625 861.902344 483.871094 C 839.664062 493.863281 816.09375 512.300781 791.207031 539.167969 Z M 821.8125 590.015625 L 936.371094 590.015625 C 936.519531 586.417969 936.054688 582.851562 935.03125 579.460938 L 934.988281 579.460938 C 933.261719 573.746094 929.945312 568.515625 925.273438 564.488281 C 905.964844 547.84375 858.890625 570.453125 821.8125 590.015625 Z M 561.542969 590.015625 L 676.085938 590.015625 C 639.003906 570.453125 591.933594 547.84375 572.628906 564.488281 C 568.117188 568.378906 564.878906 573.328125 563.101562 578.734375 L 562.910156 579.460938 C 561.875 582.867188 561.40625 586.4375 561.542969 590.015625 Z M 706.695312 583.863281 L 706.695312 539.167969 C 681.808594 512.300781 658.238281 493.863281 636 483.871094 C 614.375 474.15625 593.984375 472.488281 574.839844 478.875 C 564.371094 483.78125 555.519531 491.148438 548.90625 500.125 C 542.226562 509.195312 537.792969 519.902344 536.234375 531.375 C 534.679688 542.851562 536.101562 554.355469 540.121094 564.882812 C 541.226562 567.773438 542.527344 570.585938 544.019531 573.308594 L 544.214844 572.785156 C 547.085938 563.917969 552.335938 555.816406 559.65625 549.503906 C 591.261719 522.253906 653.433594 555.449219 696.527344 578.460938 C 700.070312 580.347656 703.472656 582.164062 706.695312 583.863281 Z M 726.578125 590.015625 L 771.324219 590.015625 L 771.324219 545.265625 L 726.578125 545.265625 Z M 812.300781 609.898438 L 812.300781 706.019531 L 1022.222656 706.019531 C 1024.355469 706.019531 1026.289062 705.152344 1027.691406 703.761719 C 1029.082031 702.363281 1029.941406 700.425781 1029.941406 698.296875 L 1029.941406 617.621094 C 1029.941406 615.503906 1029.070312 613.570312 1027.667969 612.171875 C 1026.269531 610.773438 1024.335938 609.898438 1022.222656 609.898438 Z M 812.300781 725.898438 L 812.300781 1024.894531 L 981.910156 1024.894531 C 988.433594 1024.894531 994.375 1022.214844 998.683594 1017.90625 L 998.722656 1017.90625 C 1003.007812 1013.621094 1005.675781 1007.679688 1005.675781 1001.132812 L 1005.675781 725.898438 Z M 687.703125 1024.894531 L 687.703125 725.898438 L 494.328125 725.898438 L 494.328125 1001.132812 C 494.328125 1007.65625 497.003906 1013.601562 501.3125 1017.90625 L 501.296875 1017.925781 C 505.601562 1022.226562 511.554688 1024.894531 518.09375 1024.894531 Z M 687.703125 706.019531 L 687.703125 609.898438 L 477.78125 609.898438 C 475.640625 609.898438 473.710938 610.757812 472.335938 612.136719 L 472.296875 612.171875 C 470.917969 613.550781 470.058594 615.480469 470.058594 617.621094 L 470.058594 698.296875 C 470.058594 700.410156 470.929688 702.34375 472.335938 703.746094 C 473.730469 705.144531 475.664062 706.019531 477.78125 706.019531 Z M 707.582031 609.898438 L 707.582031 706.019531 L 792.417969 706.019531 L 792.417969 609.898438 Z M 707.582031 725.898438 L 707.582031 1024.894531 L 792.417969 1024.894531 L 792.417969 725.898438 Z M 707.582031 725.898438 " fill-opacity="1" fill-rule="evenodd"/></g></svg>