<svg xmlns="http://www.w3.org/2000/svg" xmlns:xlink="http://www.w3.org/1999/xlink" width="2000" zoomAndPan="magnify" viewBox="0 0 1500 1499.999933" height="2000" preserveAspectRatio="xMidYMid meet" version="1.0"><defs><clipPath id="8d10109bf0"><path d="M 450 535.875 L 1050 535.875 L 1050 964.125 L 450 964.125 Z M 450 535.875 " clip-rule="nonzero"/></clipPath></defs><g clip-path="url(#8d10109bf0)"><path fill="#d4a35c" d="M 500.699219 535.816406 L 999.445312 535.816406 C 1013.246094 535.816406 1025.800781 541.46875 1034.902344 550.566406 L 1034.929688 550.597656 C 1044.03125 559.699219 1049.683594 572.253906 1049.683594 586.054688 L 1049.683594 913.800781 C 1049.683594 927.621094 1044.03125 940.191406 1034.929688 949.289062 C 1034.789062 949.433594 1034.636719 949.574219 1034.484375 949.703125 C 1025.417969 958.558594 1013.035156 964.042969 999.445312 964.042969 L 500.699219 964.042969 C 486.878906 964.042969 474.308594 958.390625 465.210938 949.289062 C 456.109375 940.191406 450.457031 927.621094 450.457031 913.800781 L 450.457031 586.054688 C 450.457031 572.253906 456.109375 559.699219 465.210938 550.597656 L 465.226562 550.582031 L 465.210938 550.566406 C 474.308594 541.46875 486.878906 535.816406 500.699219 535.816406 Z M 1027.488281 935.097656 L 823.054688 759.769531 L 790.257812 787.898438 C 779.183594 797.390625 764.703125 802.183594 750.300781 802.257812 C 735.882812 802.328125 721.4375 797.664062 710.457031 788.25 L 677.25 759.773438 L 472.714844 935.179688 C 473.667969 936.417969 474.695312 937.59375 475.800781 938.699219 C 482.191406 945.089844 491.007812 949.0625 500.699219 949.0625 L 999.445312 949.0625 C 1008.964844 949.0625 1017.640625 945.238281 1024.003906 939.0625 L 1024.339844 938.699219 C 1025.46875 937.574219 1026.519531 936.367188 1027.488281 935.097656 Z M 466.203125 921.085938 L 665.777344 749.933594 L 466.203125 578.773438 C 465.703125 581.125 465.4375 583.5625 465.4375 586.054688 L 465.4375 913.800781 C 465.4375 916.296875 465.703125 918.734375 466.203125 921.085938 Z M 472.703125 564.667969 L 681.945312 744.121094 L 682.28125 744.410156 L 720.167969 776.902344 C 728.347656 783.914062 739.261719 787.386719 750.242188 787.335938 C 761.238281 787.28125 772.230469 783.679688 780.542969 776.546875 L 818.085938 744.351562 L 818.285156 744.179688 L 1027.5 564.75 C 1026.53125 563.476562 1025.484375 562.273438 1024.355469 561.144531 C 1017.964844 554.761719 1009.144531 550.796875 999.445312 550.796875 L 500.699219 550.796875 C 491.007812 550.796875 482.191406 554.765625 475.800781 561.160156 L 475.785156 561.144531 C 474.683594 562.246094 473.652344 563.425781 472.703125 564.667969 Z M 1033.964844 578.886719 L 834.527344 749.929688 L 1033.964844 920.972656 C 1034.449219 918.65625 1034.703125 916.257812 1034.703125 913.800781 L 1034.703125 586.054688 C 1034.703125 583.601562 1034.445312 581.203125 1033.964844 578.886719 Z M 1033.964844 578.886719 " fill-opacity="1" fill-rule="evenodd"/></g></svg>