<svg xmlns="http://www.w3.org/2000/svg" xmlns:xlink="http://www.w3.org/1999/xlink" width="2000" zoomAndPan="magnify" viewBox="0 0 1500 1499.999933" height="2000" preserveAspectRatio="xMidYMid meet" version="1.0"><defs><clipPath id="baeb26058c"><path d="M 516 1018 L 557 1018 L 557 1034.25 L 516 1034.25 Z M 516 1018 " clip-rule="nonzero"/></clipPath><clipPath id="d2f88419f0"><path d="M 469 1018 L 510 1018 L 510 1034.25 L 469 1034.25 Z M 469 1018 " clip-rule="nonzero"/></clipPath><clipPath id="baa42e077e"><path d="M 983 1018 L 1025 1018 L 1025 1034.25 L 983 1034.25 Z M 983 1018 " clip-rule="nonzero"/></clipPath><clipPath id="1f5236d756"><path d="M 936 1018 L 978 1018 L 978 1034.25 L 936 1034.25 Z M 936 1018 " clip-rule="nonzero"/></clipPath><clipPath id="6e4aa16aad"><path d="M 724 465.75 L 902 465.75 L 902 592 L 724 592 Z M 724 465.75 " clip-rule="nonzero"/></clipPath><clipPath id="ac2f66f1d4"><path d="M 741 1012 L 802 1012 L 802 1034.25 L 741 1034.25 Z M 741 1012 " clip-rule="nonzero"/></clipPath><clipPath id="7d105fa298"><path d="M 813 1012 L 873 1012 L 873 1034.25 L 813 1034.25 Z M 813 1012 " clip-rule="nonzero"/></clipPath><clipPath id="cca3f30b06"><path d="M 596 1012 L 655 1012 L 655 1034.25 L 596 1034.25 Z M 596 1012 " clip-rule="nonzero"/></clipPath><clipPath id="05ccd75dc9"><path d="M 666 1012 L 725 1012 L 725 1034.25 L 666 1034.25 Z M 666 1012 " clip-rule="nonzero"/></clipPath></defs><path fill="#d4a35c" d="M 570.21875 865.089844 L 569.902344 864.980469 L 570.21875 865.089844 " fill-opacity="1" fill-rule="nonzero"/><path fill="#d4a35c" d="M 569.707031 864.871094 L 569.457031 864.714844 L 569.707031 864.871094 " fill-opacity="1" fill-rule="nonzero"/><path fill="#d4a35c" d="M 570.902344 865.199219 C 570.734375 865.199219 570.566406 865.179688 570.398438 865.140625 C 570.566406 865.179688 570.734375 865.199219 570.902344 865.199219 " fill-opacity="1" fill-rule="nonzero"/><path fill="#d4a35c" d="M 557.578125 850.816406 C 556.925781 850.054688 556.804688 848.972656 557.253906 848.082031 L 558.585938 845.472656 L 543.214844 828.585938 L 542.21875 834.867188 L 569.085938 864.390625 L 569.273438 864.558594 L 569.027344 864.328125 L 557.578125 850.816406 " fill-opacity="1" fill-rule="nonzero"/><path fill="#d4a35c" d="M 545.765625 812.46875 L 545.753906 812.503906 L 545.746094 812.625 L 545.480469 814.28125 L 563.554688 835.707031 L 566 830.90625 L 546.445312 807.726562 C 546.160156 809.316406 545.914062 810.898438 545.765625 812.46875 " fill-opacity="1" fill-rule="nonzero"/><path fill="#d4a35c" d="M 573.023438 864.011719 L 572.957031 864.132812 L 573.023438 864.011719 " fill-opacity="1" fill-rule="nonzero"/><path fill="#d4a35c" d="M 572.484375 864.636719 L 572.335938 864.734375 L 572.484375 864.636719 " fill-opacity="1" fill-rule="nonzero"/><path fill="#d4a35c" d="M 571.8125 865.03125 L 571.886719 864.992188 L 571.683594 865.058594 Z M 571.8125 865.03125 " fill-opacity="1" fill-rule="nonzero"/><path fill="#d4a35c" d="M 546.445312 807.726562 C 549.222656 792.398438 558.050781 776.355469 565.292969 763.21875 C 565.417969 762.992188 565.539062 762.769531 565.664062 762.550781 L 565.5 752.445312 C 564.117188 755.070312 562.566406 757.878906 560.953125 760.820312 C 554.132812 773.179688 545.941406 788.058594 542.378906 802.894531 C 544.5 805.425781 545.777344 808.683594 545.777344 812.238281 L 545.753906 812.503906 L 545.765625 812.46875 C 545.914062 810.898438 546.160156 809.316406 546.445312 807.726562 " fill-opacity="1" fill-rule="nonzero"/><path fill="#d4a35c" d="M 479.726562 806.617188 C 476.945312 790.875 469.691406 774.84375 463.738281 761.722656 C 459.117188 751.535156 455.128906 742.738281 455.128906 738.097656 C 455.128906 727.269531 456.546875 716.917969 459.097656 707.386719 L 457.109375 699.832031 C 456.882812 698.980469 457.132812 698.0625 457.761719 697.441406 C 458.394531 696.8125 459.304688 696.574219 460.164062 696.808594 L 462.285156 697.390625 C 472.15625 671.179688 491.234375 653.371094 513.113281 653.371094 C 545.066406 653.390625 571.050781 691.425781 571.039062 738.15625 C 571.039062 739.308594 570.710938 740.75 570.128906 742.417969 L 575.945312 734.714844 C 574.683594 686.835938 547 648.425781 513.09375 648.40625 C 478.414062 648.40625 450.179688 688.644531 450.167969 738.097656 C 450.167969 743.804688 454.160156 752.621094 459.222656 763.773438 C 465.625 777.898438 473.597656 795.480469 475.5 811.941406 L 475.53125 812.050781 L 479.726562 806.617188 " fill-opacity="1" fill-rule="nonzero"/><path fill="#d4a35c" d="M 465.050781 725.144531 C 465.269531 725.203125 465.484375 725.226562 465.703125 725.226562 C 466.347656 725.226562 466.980469 724.976562 467.445312 724.511719 L 479.355469 712.710938 C 478 711.726562 476.933594 710.371094 476.292969 708.761719 L 467.007812 717.957031 L 463 702.726562 L 475.671875 706.183594 C 475.519531 704.503906 475.847656 702.824219 476.625 701.296875 L 462.285156 697.390625 L 460.164062 696.808594 C 459.304688 696.574219 458.394531 696.8125 457.761719 697.441406 C 457.132812 698.0625 456.882812 698.980469 457.109375 699.832031 L 459.097656 707.386719 L 463.304688 723.378906 C 463.53125 724.238281 464.195312 724.910156 465.050781 725.144531 " fill-opacity="1" fill-rule="nonzero"/><path fill="#d4a35c" d="M 492.972656 701.617188 L 502.277344 692.386719 L 506.289062 707.625 L 493.703125 704.1875 C 493.929688 705.917969 493.65625 707.625 492.964844 709.136719 L 509.132812 713.542969 C 509.347656 713.601562 509.566406 713.628906 509.785156 713.628906 C 510.433594 713.628906 511.058594 713.375 511.53125 712.910156 C 512.15625 712.285156 512.410156 711.371094 512.183594 710.511719 L 505.988281 686.972656 C 505.761719 686.113281 505.089844 685.441406 504.234375 685.207031 C 503.382812 684.976562 502.464844 685.214844 501.835938 685.84375 L 489.726562 697.839844 C 491.117188 698.773438 492.261719 700.050781 492.972656 701.617188 " fill-opacity="1" fill-rule="nonzero"/><path fill="#d4a35c" d="M 483.648438 701.390625 C 483.996094 701.296875 484.351562 701.253906 484.699219 701.253906 C 486.574219 701.253906 488.214844 702.519531 488.6875 704.328125 C 489.269531 706.527344 487.949219 708.789062 485.746094 709.371094 C 483.5625 709.945312 481.277344 708.585938 480.714844 706.429688 C 480.4375 705.363281 480.585938 704.25 481.140625 703.300781 C 481.695312 702.351562 482.585938 701.671875 483.648438 701.390625 Z M 475.671875 706.183594 C 475.71875 706.6875 475.78125 707.191406 475.914062 707.691406 C 476.007812 708.058594 476.152344 708.414062 476.292969 708.761719 C 476.933594 710.371094 478 711.726562 479.355469 712.710938 C 480.867188 713.816406 482.71875 714.46875 484.695312 714.46875 C 485.46875 714.46875 486.25 714.363281 487.007812 714.164062 C 489.753906 713.445312 491.875 711.535156 492.964844 709.136719 C 493.65625 707.625 493.929688 705.917969 493.703125 704.1875 C 493.652344 703.820312 493.585938 703.445312 493.488281 703.070312 C 493.359375 702.566406 493.179688 702.082031 492.972656 701.617188 C 492.261719 700.050781 491.117188 698.773438 489.726562 697.839844 C 488.273438 696.871094 486.546875 696.289062 484.699219 696.289062 C 483.925781 696.289062 483.144531 696.386719 482.386719 696.589844 C 480.042969 697.207031 478.070312 698.699219 476.847656 700.800781 C 476.757812 700.960938 476.707031 701.136719 476.625 701.296875 C 475.847656 702.824219 475.519531 704.503906 475.671875 706.183594 " fill-opacity="1" fill-rule="nonzero"/><path fill="#d4a35c" d="M 543.214844 828.585938 L 545.480469 814.28125 L 545.746094 812.625 L 545.753906 812.503906 L 545.777344 812.238281 C 545.777344 808.683594 544.5 805.425781 542.378906 802.894531 C 539.703125 799.6875 535.683594 797.644531 531.195312 797.640625 L 526.398438 797.640625 L 526.394531 802.601562 L 531.195312 802.601562 C 536.433594 802.609375 540.710938 806.828125 540.808594 812.050781 L 532.183594 866.492188 C 532.125 866.878906 532.15625 867.273438 532.28125 867.648438 L 540.382812 892.539062 L 543.066406 892.539062 C 544.433594 892.539062 545.546875 893.652344 545.546875 895.023438 L 545.546875 895.597656 C 545.664062 894.859375 545.742188 894.117188 545.742188 893.347656 C 545.742188 893.082031 545.695312 892.824219 545.617188 892.578125 L 537.183594 866.679688 L 542.21875 834.867188 L 543.214844 828.585938 " fill-opacity="1" fill-rule="nonzero"/><path fill="#d4a35c" d="M 492.707031 866.480469 L 487.5625 833.832031 L 487.570312 833.941406 C 487.609375 834.648438 487.351562 835.332031 486.851562 835.832031 L 483.402344 839.308594 L 487.710938 866.660156 L 484.066406 877.832031 L 488.964844 878.816406 L 492.617188 867.636719 C 492.738281 867.261719 492.773438 866.867188 492.707031 866.480469 " fill-opacity="1" fill-rule="nonzero"/><path fill="#d4a35c" d="M 493.753906 802.589844 L 498.546875 802.597656 L 498.554688 797.632812 L 493.746094 797.628906 C 488.648438 797.628906 484.152344 800.277344 481.546875 804.261719 C 482.179688 803.449219 483.246094 803.121094 484.230469 803.417969 C 485.21875 803.726562 485.914062 804.613281 485.972656 805.644531 L 486.023438 806.503906 C 487.777344 804.140625 490.585938 802.589844 493.753906 802.589844 " fill-opacity="1" fill-rule="nonzero"/><path fill="#d4a35c" d="M 521.4375 796.785156 L 521.429688 807.589844 C 521.429688 812.464844 517.46875 816.425781 512.597656 816.425781 L 512.339844 816.425781 C 507.464844 816.425781 503.511719 812.457031 503.511719 807.589844 L 503.519531 796.03125 C 501.84375 795.421875 500.191406 794.679688 498.554688 793.839844 L 498.554688 797.632812 L 498.546875 802.597656 L 498.546875 807.585938 C 498.546875 815.195312 504.734375 821.386719 512.339844 821.386719 L 512.597656 821.386719 C 520.203125 821.386719 526.386719 815.203125 526.394531 807.597656 L 526.394531 802.601562 L 526.398438 797.640625 L 526.398438 794.769531 C 524.757812 795.585938 523.097656 796.257812 521.4375 796.785156 " fill-opacity="1" fill-rule="nonzero"/><path fill="#d4a35c" d="M 450.136719 845.535156 L 450.207031 845.117188 L 450.136719 845.535156 " fill-opacity="1" fill-rule="nonzero"/><path fill="#d4a35c" d="M 454.679688 844.632812 L 455.5625 846.085938 L 481.390625 812.578125 L 482.554688 833.117188 L 460.921875 854.894531 L 463.578125 859.261719 L 483.402344 839.308594 L 486.851562 835.832031 C 487.351562 835.332031 487.609375 834.648438 487.570312 833.941406 L 487.5625 833.832031 L 486.023438 806.503906 L 485.972656 805.644531 C 485.914062 804.613281 485.21875 803.726562 484.230469 803.417969 C 483.246094 803.121094 482.179688 803.449219 481.546875 804.261719 L 481.535156 804.269531 L 479.726562 806.617188 L 475.53125 812.050781 L 450.589844 844.40625 L 450.589844 844.410156 C 450.90625 843.992188 451.355469 843.675781 451.894531 843.527344 C 452.960938 843.230469 454.097656 843.679688 454.679688 844.632812 " fill-opacity="1" fill-rule="nonzero"/><path fill="#d4a35c" d="M 500.789062 996.3125 L 500.777344 1018.238281 L 501.84375 1018.238281 C 503.265625 1018.238281 504.585938 1018.644531 505.742188 1019.296875 L 505.753906 996.210938 C 505.539062 996.265625 505.320312 996.3125 505.082031 996.3125 L 500.789062 996.3125 " fill-opacity="1" fill-rule="nonzero"/><path fill="#d4a35c" d="M 493.667969 1018.238281 L 492.382812 996.3125 L 489.746094 996.3125 C 488.480469 996.3125 487.414062 995.351562 487.277344 994.089844 L 488.695312 1018.238281 L 493.667969 1018.238281 " fill-opacity="1" fill-rule="nonzero"/><path fill="#d4a35c" d="M 535.304688 996.3125 L 532.863281 996.3125 L 531.425781 1018.246094 L 536.394531 1018.246094 L 538.535156 985.585938 L 537.773438 994.050781 C 537.65625 995.332031 536.582031 996.3125 535.304688 996.3125 " fill-opacity="1" fill-rule="nonzero"/><path fill="#d4a35c" d="M 523.050781 1018.355469 L 523.058594 996.3125 L 519.96875 996.3125 C 519.21875 996.3125 518.554688 995.96875 518.097656 995.441406 L 518.089844 1021.09375 C 519.332031 1019.632812 521.070312 1018.632812 523.050781 1018.355469 " fill-opacity="1" fill-rule="nonzero"/><path fill="#d4a35c" d="M 479.5 726.746094 C 482.601562 726.746094 486.296875 727.089844 490.199219 727.457031 C 494.96875 727.894531 500.371094 728.398438 505.960938 728.398438 C 518.03125 728.398438 534.9375 726.324219 549.125 710.054688 C 548.480469 717.789062 548.523438 728.1875 552.449219 733.558594 C 553.5 734.996094 554.8125 736.050781 556.3125 736.671875 C 555.292969 765.519531 531.285156 793.167969 513.277344 793.167969 L 513.191406 793.167969 C 493.199219 791.546875 468.847656 764.632812 468.867188 735.429688 C 468.867188 728.859375 471.453125 726.746094 479.5 726.746094 Z M 503.519531 796.03125 C 506.605469 797.160156 509.746094 797.886719 512.902344 798.125 L 513.089844 798.132812 L 513.277344 798.132812 C 515.976562 798.132812 518.714844 797.652344 521.4375 796.785156 C 523.097656 796.257812 524.757812 795.585938 526.398438 794.769531 C 544.816406 785.609375 561.300781 759.238281 561.308594 734.792969 C 561.308594 733.542969 560.375 732.484375 559.136719 732.328125 C 558.058594 732.195312 557.203125 731.652344 556.453125 730.628906 C 552.144531 724.734375 554.113281 707.597656 555.234375 701.492188 C 555.445312 700.328125 554.8125 699.179688 553.714844 698.738281 C 552.617188 698.308594 551.355469 698.699219 550.714844 699.695312 C 537.042969 720.742188 519.613281 723.4375 505.960938 723.4375 C 500.605469 723.4375 495.316406 722.945312 490.660156 722.511719 C 486.640625 722.136719 482.832031 721.78125 479.5 721.78125 C 472.804688 721.78125 463.90625 723.199219 463.90625 735.429688 C 463.894531 759.3125 479.5625 784.042969 498.554688 793.839844 C 500.191406 794.679688 501.84375 795.421875 503.519531 796.03125 " fill-opacity="1" fill-rule="nonzero"/><g clip-path="url(#baeb26058c)"><path fill="#d4a35c" d="M 551.167969 1026.246094 C 551.167969 1027.058594 550.851562 1027.816406 550.277344 1028.390625 C 549.707031 1028.964844 548.9375 1029.273438 548.132812 1029.273438 L 524.15625 1029.273438 C 522.484375 1029.273438 521.121094 1027.917969 521.121094 1026.238281 C 521.121094 1024.5625 522.484375 1023.207031 524.15625 1023.207031 L 548.132812 1023.207031 C 549.796875 1023.207031 551.160156 1024.570312 551.167969 1026.246094 Z M 531.425781 1018.246094 L 524.15625 1018.246094 C 523.777344 1018.246094 523.414062 1018.304688 523.050781 1018.355469 C 521.070312 1018.632812 519.332031 1019.632812 518.089844 1021.09375 C 516.90625 1022.488281 516.15625 1024.265625 516.15625 1026.238281 C 516.15625 1030.652344 519.75 1034.238281 524.15625 1034.238281 L 548.132812 1034.238281 C 550.261719 1034.238281 552.273438 1033.410156 553.785156 1031.898438 C 555.296875 1030.386719 556.132812 1028.382812 556.132812 1026.238281 C 556.125 1021.832031 552.53125 1018.246094 548.132812 1018.246094 L 531.425781 1018.246094 " fill-opacity="1" fill-rule="nonzero"/></g><g clip-path="url(#d2f88419f0)"><path fill="#d4a35c" d="M 474.839844 1026.230469 C 474.839844 1025.421875 475.15625 1024.667969 475.726562 1024.09375 C 476.300781 1023.515625 477.0625 1023.199219 477.875 1023.199219 L 501.84375 1023.199219 C 503.519531 1023.199219 504.882812 1024.5625 504.882812 1026.238281 C 504.882812 1027.910156 503.519531 1029.273438 501.84375 1029.273438 L 477.875 1029.269531 C 477.0625 1029.269531 476.300781 1028.953125 475.726562 1028.375 C 475.15625 1027.808594 474.839844 1027.046875 474.839844 1026.230469 Z M 501.84375 1018.238281 L 477.875 1018.238281 C 475.738281 1018.238281 473.722656 1019.070312 472.210938 1020.582031 C 470.703125 1022.097656 469.878906 1024.105469 469.878906 1026.230469 C 469.878906 1028.363281 470.703125 1030.375 472.210938 1031.886719 C 473.722656 1033.398438 475.738281 1034.230469 477.875 1034.230469 L 501.84375 1034.238281 C 506.257812 1034.238281 509.84375 1030.652344 509.84375 1026.238281 C 509.84375 1023.246094 508.175781 1020.667969 505.742188 1019.296875 C 504.585938 1018.644531 503.265625 1018.238281 501.84375 1018.238281 " fill-opacity="1" fill-rule="nonzero"/></g><path fill="#d4a35c" d="M 599.007812 788.523438 C 598.296875 788.449219 597.605469 788.308594 596.917969 788.152344 L 596.914062 794.441406 C 596.914062 797.90625 594.707031 800.980469 591.425781 802.097656 C 590.714844 802.34375 590.152344 802.894531 589.894531 803.597656 L 570.054688 857.859375 L 562.429688 848.863281 L 584.226562 806.039062 C 584.578125 805.355469 584.589844 804.546875 584.261719 803.855469 C 583.9375 803.164062 583.308594 802.660156 582.558594 802.492188 C 582.316406 802.433594 581.863281 802.273438 581.578125 801.78125 L 572.242188 786.035156 C 572.035156 785.679688 571.96875 785.265625 572.074219 784.863281 C 572.175781 784.46875 572.429688 784.140625 572.785156 783.929688 C 573.5 783.5 574.464844 783.757812 574.882812 784.464844 L 576.148438 786.601562 C 576.699219 787.527344 577.773438 787.984375 578.820312 787.765625 C 579.867188 787.535156 580.640625 786.660156 580.75 785.59375 C 581.046875 782.75 582.800781 780.414062 585.203125 779.21875 C 585.054688 778.933594 584.9375 778.628906 584.804688 778.339844 L 577.851562 779.359375 C 577.707031 779.585938 577.550781 779.792969 577.417969 780.023438 C 577.171875 779.84375 576.914062 779.683594 576.640625 779.539062 L 571.535156 780.289062 L 570 781.839844 C 569.527344 782.320312 568.886719 782.570312 568.242188 782.570312 C 568.046875 782.570312 567.867188 782.542969 567.679688 782.5 C 567.511719 782.863281 567.367188 783.238281 567.273438 783.628906 C 566.832031 785.3125 567.085938 787.066406 567.96875 788.566406 L 577.300781 804.308594 C 577.675781 804.9375 578.148438 805.492188 578.703125 805.957031 L 566 830.90625 L 563.554688 835.707031 L 558.585938 845.472656 L 557.253906 848.082031 C 556.804688 848.972656 556.925781 850.054688 557.578125 850.816406 L 569.027344 864.328125 L 569.273438 864.558594 L 569.457031 864.714844 L 569.707031 864.871094 L 569.902344 864.980469 L 570.21875 865.089844 L 570.398438 865.140625 C 570.566406 865.179688 570.734375 865.199219 570.902344 865.199219 L 570.921875 865.199219 L 571.355469 865.160156 L 571.683594 865.058594 L 571.886719 864.992188 C 572.046875 864.929688 572.195312 864.835938 572.335938 864.734375 L 572.484375 864.636719 C 572.667969 864.496094 572.824219 864.328125 572.957031 864.132812 L 573.023438 864.011719 C 573.105469 863.867188 573.191406 863.726562 573.25 863.570312 L 594.171875 806.34375 C 597.539062 804.832031 600.039062 801.984375 601.183594 798.570312 L 601.082031 798.492188 C 598.121094 795.992188 597.363281 791.84375 599.007812 788.523438 " fill-opacity="1" fill-rule="nonzero"/><path fill="#d4a35c" d="M 543.066406 892.539062 L 494.269531 892.539062 C 494.671875 894.175781 494.730469 895.863281 494.4375 897.503906 L 540.582031 897.503906 L 540.582031 909.089844 C 540.46875 909.339844 540.390625 909.621094 540.363281 909.910156 L 533.035156 991.351562 L 522.328125 991.351562 L 518.128906 909.898438 C 518.0625 908.578125 516.972656 907.542969 515.652344 907.542969 L 508.539062 907.542969 C 507.214844 907.542969 506.117188 908.589844 506.0625 909.921875 L 502.703125 991.351562 L 491.988281 991.351562 L 483.667969 909.878906 C 483.640625 909.601562 483.570312 909.335938 483.453125 909.089844 L 483.453125 907.410156 C 483.15625 907.429688 482.859375 907.453125 482.5625 907.453125 C 481.160156 907.453125 479.789062 907.203125 478.492188 906.738281 L 478.492188 910.128906 C 478.492188 910.59375 478.621094 911.019531 478.832031 911.390625 L 487.277344 994.082031 L 487.277344 994.089844 C 487.414062 995.351562 488.480469 996.3125 489.746094 996.3125 L 505.082031 996.3125 C 505.320312 996.3125 505.539062 996.265625 505.753906 996.210938 C 506.761719 995.925781 507.519531 995.035156 507.5625 993.933594 L 510.921875 912.507812 L 513.292969 912.507812 L 517.496094 993.960938 C 517.519531 994.527344 517.753906 995.039062 518.097656 995.441406 C 518.554688 995.96875 519.21875 996.3125 519.96875 996.3125 L 535.304688 996.3125 C 536.582031 996.3125 537.65625 995.332031 537.773438 994.050781 L 538.535156 985.585938 L 545.21875 911.371094 C 545.421875 911.007812 545.546875 910.582031 545.546875 910.128906 L 545.546875 895.023438 C 545.546875 893.652344 544.433594 892.539062 543.066406 892.539062 " fill-opacity="1" fill-rule="nonzero"/><path fill="#d4a35c" d="M 469.914062 886.253906 L 454.96875 867.679688 L 455.007812 854.726562 L 471.351562 881.585938 C 471.777344 882.285156 472.511719 882.722656 473.328125 882.777344 C 474.148438 882.816406 474.921875 882.464844 475.429688 881.828125 C 475.699219 881.476562 476.121094 881.296875 476.566406 881.386719 L 492.863281 884.65625 C 493.269531 884.742188 493.496094 885.003906 493.597656 885.152344 C 493.695312 885.304688 493.851562 885.613281 493.773438 886.027344 C 493.644531 886.648438 493.042969 887.074219 492.402344 886.945312 L 490.109375 886.484375 C 489.050781 886.265625 487.984375 886.757812 487.460938 887.695312 C 486.929688 888.628906 487.066406 889.792969 487.789062 890.589844 C 490.277344 893.308594 490.304688 897.417969 487.859375 900.132812 C 486.511719 901.632812 484.578125 902.492188 482.5625 902.492188 C 480.796875 902.492188 479.105469 901.839844 477.792969 900.65625 L 472.402344 895.804688 C 470.367188 893.96875 469.585938 891.171875 470.363281 888.5 C 470.59375 887.726562 470.425781 886.886719 469.914062 886.253906 Z M 482.5625 907.453125 C 482.859375 907.453125 483.15625 907.429688 483.453125 907.410156 C 486.546875 907.175781 489.457031 905.773438 491.550781 903.453125 C 493.109375 901.722656 494.0625 899.65625 494.4375 897.503906 C 494.730469 895.863281 494.671875 894.175781 494.269531 892.539062 C 494.207031 892.28125 494.15625 892.015625 494.070312 891.757812 C 496.339844 891.203125 498.160156 889.375 498.632812 887.007812 C 498.957031 885.398438 498.640625 883.769531 497.726562 882.40625 C 496.824219 881.042969 495.441406 880.113281 493.835938 879.789062 L 488.964844 878.816406 L 484.066406 877.832031 L 477.539062 876.519531 C 476.4375 876.292969 475.277344 876.390625 474.238281 876.78125 L 463.578125 859.261719 L 460.921875 854.894531 L 455.5625 846.085938 L 454.679688 844.632812 C 454.097656 843.679688 452.960938 843.230469 451.894531 843.527344 C 451.355469 843.675781 450.90625 843.992188 450.589844 844.410156 C 450.425781 844.625 450.296875 844.859375 450.207031 845.117188 L 450.136719 845.535156 L 450.078125 845.910156 L 450 868.539062 C 450 869.109375 450.195312 869.664062 450.550781 870.105469 L 465.296875 888.425781 C 464.558594 892.527344 465.949219 896.667969 469.082031 899.488281 L 474.472656 904.347656 C 475.652344 905.414062 477.023438 906.214844 478.492188 906.738281 C 479.789062 907.203125 481.160156 907.453125 482.5625 907.453125 " fill-opacity="1" fill-rule="nonzero"/><path fill="#d4a35c" d="M 994.613281 796.179688 L 1000.191406 796.179688 C 1004.933594 796.179688 1008.90625 799.476562 1009.972656 803.894531 L 1009.972656 803.585938 C 1009.960938 802.523438 1010.632812 801.570312 1011.632812 801.21875 C 1012.640625 800.871094 1013.761719 801.199219 1014.414062 802.039062 L 1014.714844 802.433594 C 1013.015625 795.984375 1007.164062 791.21875 1000.191406 791.21875 L 998.800781 791.21875 C 997.4375 791.753906 996.035156 792.226562 994.613281 792.652344 L 994.613281 796.179688 " fill-opacity="1" fill-rule="nonzero"/><path fill="#d4a35c" d="M 1010.910156 831.933594 C 1010.503906 831.488281 1010.269531 830.898438 1010.265625 830.296875 L 1010.265625 884.554688 L 1012.746094 884.554688 C 1013.0625 884.554688 1013.359375 884.617188 1013.628906 884.722656 L 1013.683594 884.734375 C 1013.941406 884.84375 1014.179688 885 1014.386719 885.179688 L 1014.453125 885.238281 C 1014.652344 885.425781 1014.8125 885.644531 1014.9375 885.882812 L 1014.988281 885.980469 C 1015.105469 886.226562 1015.175781 886.492188 1015.199219 886.777344 L 1015.21875 886.839844 L 1015.226562 886.9375 L 1015.226562 836.695312 L 1010.910156 831.933594 " fill-opacity="1" fill-rule="nonzero"/><path fill="#d4a35c" d="M 945.316406 886.757812 L 945.339844 886.511719 L 945.417969 886.277344 L 945.488281 886.046875 L 945.605469 885.832031 L 945.722656 885.632812 L 945.878906 885.445312 L 946.027344 885.269531 L 946.214844 885.109375 L 946.386719 884.96875 L 946.613281 884.84375 L 946.808594 884.742188 L 947.09375 884.65625 L 947.273438 884.597656 C 947.429688 884.566406 947.597656 884.554688 947.765625 884.554688 L 950.246094 884.554688 L 950.246094 830.828125 L 945.28125 837.425781 L 945.28125 887.023438 L 945.289062 886.984375 L 945.316406 886.757812 " fill-opacity="1" fill-rule="nonzero"/><path fill="#d4a35c" d="M 950.027344 798.394531 C 951.113281 798.707031 951.839844 799.714844 951.816406 800.84375 L 951.808594 800.890625 C 953.597656 798.066406 956.738281 796.179688 960.324219 796.179688 L 965.910156 796.179688 L 965.910156 793.167969 C 963.855469 792.636719 961.839844 792 959.886719 791.234375 C 953.554688 791.421875 948.203125 795.535156 946.175781 801.21875 L 947.203125 799.5 C 947.785156 798.53125 948.945312 798.074219 950.027344 798.394531 " fill-opacity="1" fill-rule="nonzero"/><path fill="#d4a35c" d="M 980.117188 815.675781 L 980.390625 815.675781 C 988.230469 815.675781 994.613281 809.289062 994.613281 801.453125 L 994.613281 792.652344 C 992.984375 793.136719 991.332031 793.542969 989.652344 793.871094 L 989.652344 801.453125 C 989.652344 806.558594 985.496094 810.710938 980.390625 810.710938 L 980.117188 810.710938 C 975.019531 810.710938 970.871094 806.558594 970.871094 801.453125 L 970.871094 794.195312 C 969.191406 793.929688 967.539062 793.589844 965.910156 793.167969 L 965.910156 801.453125 C 965.910156 809.289062 972.289062 815.675781 980.117188 815.675781 " fill-opacity="1" fill-rule="nonzero"/><path fill="#d4a35c" d="M 983.503906 1027.21875 C 983.503906 1027.730469 983.660156 1028.207031 983.933594 1028.609375 C 983.679688 1027.828125 983.503906 1027.011719 983.503906 1026.148438 L 983.503906 1027.21875 " fill-opacity="1" fill-rule="nonzero"/><path fill="#d4a35c" d="M 977.003906 1027.21875 L 977.003906 1026.148438 C 977.003906 1027.011719 976.828125 1027.820312 976.578125 1028.601562 C 976.847656 1028.207031 977.003906 1027.730469 977.003906 1027.21875 " fill-opacity="1" fill-rule="nonzero"/><path fill="#d4a35c" d="M 988.46875 1018.691406 L 988.46875 948.511719 L 983.503906 948.511719 L 983.503906 1026.148438 C 983.503906 1022.792969 985.554688 1019.917969 988.46875 1018.691406 " fill-opacity="1" fill-rule="nonzero"/><path fill="#d4a35c" d="M 945.878906 885.445312 L 946.027344 885.269531 L 945.878906 885.445312 " fill-opacity="1" fill-rule="nonzero"/><path fill="#d4a35c" d="M 945.722656 885.632812 L 945.605469 885.832031 L 945.722656 885.632812 " fill-opacity="1" fill-rule="nonzero"/><path fill="#d4a35c" d="M 946.808594 884.742188 L 946.613281 884.84375 L 946.808594 884.742188 " fill-opacity="1" fill-rule="nonzero"/><path fill="#d4a35c" d="M 946.386719 884.96875 L 946.214844 885.109375 L 946.386719 884.96875 " fill-opacity="1" fill-rule="nonzero"/><path fill="#d4a35c" d="M 1014.453125 885.238281 C 1014.652344 885.425781 1014.8125 885.644531 1014.9375 885.882812 C 1014.8125 885.644531 1014.652344 885.425781 1014.453125 885.238281 " fill-opacity="1" fill-rule="nonzero"/><path fill="#d4a35c" d="M 945.488281 886.046875 L 945.417969 886.277344 L 945.488281 886.046875 " fill-opacity="1" fill-rule="nonzero"/><path fill="#d4a35c" d="M 945.339844 886.511719 L 945.316406 886.757812 L 945.339844 886.511719 " fill-opacity="1" fill-rule="nonzero"/><path fill="#d4a35c" d="M 1015.199219 886.777344 C 1015.175781 886.492188 1015.105469 886.226562 1014.988281 885.980469 C 1015.105469 886.226562 1015.175781 886.492188 1015.199219 886.777344 " fill-opacity="1" fill-rule="nonzero"/><path fill="#d4a35c" d="M 1014.386719 885.179688 C 1014.179688 885 1013.941406 884.84375 1013.683594 884.734375 C 1013.941406 884.84375 1014.179688 885 1014.386719 885.179688 " fill-opacity="1" fill-rule="nonzero"/><path fill="#d4a35c" d="M 1013.628906 884.722656 C 1013.359375 884.617188 1013.0625 884.554688 1012.746094 884.554688 C 1013.0625 884.554688 1013.359375 884.613281 1013.628906 884.722656 " fill-opacity="1" fill-rule="nonzero"/><path fill="#d4a35c" d="M 947.273438 884.597656 L 947.09375 884.65625 L 947.273438 884.597656 " fill-opacity="1" fill-rule="nonzero"/><path fill="#d4a35c" d="M 972.042969 948.511719 L 972.042969 1018.683594 C 974.949219 1019.910156 977.003906 1022.792969 977.003906 1026.148438 L 977.003906 948.511719 L 972.042969 948.511719 " fill-opacity="1" fill-rule="nonzero"/><path fill="#d4a35c" d="M 1007.402344 948.511719 L 1001.644531 1018.058594 L 1006.625 1018.058594 L 1012.382812 948.511719 L 1007.402344 948.511719 " fill-opacity="1" fill-rule="nonzero"/><path fill="#d4a35c" d="M 958.871094 1018.058594 L 953.113281 948.511719 L 948.132812 948.511719 L 953.890625 1018.058594 L 958.871094 1018.058594 " fill-opacity="1" fill-rule="nonzero"/><g clip-path="url(#baa42e077e)"><path fill="#d4a35c" d="M 1019.117188 1026.148438 C 1019.117188 1027.871094 1017.714844 1029.273438 1015.984375 1029.273438 L 991.601562 1029.273438 C 989.875 1029.273438 988.46875 1027.871094 988.46875 1026.148438 C 988.46875 1024.421875 989.875 1023.019531 991.601562 1023.019531 L 1015.984375 1023.019531 C 1017.714844 1023.019531 1019.117188 1024.421875 1019.117188 1026.148438 Z M 1001.644531 1018.058594 L 991.601562 1018.058594 C 990.492188 1018.058594 989.4375 1018.285156 988.46875 1018.691406 C 985.554688 1019.917969 983.503906 1022.792969 983.503906 1026.148438 C 983.503906 1027.011719 983.679688 1027.828125 983.933594 1028.609375 C 984.976562 1031.859375 988.003906 1034.238281 991.601562 1034.238281 L 1015.984375 1034.238281 C 1020.449219 1034.238281 1024.078125 1030.613281 1024.078125 1026.148438 C 1024.078125 1021.6875 1020.449219 1018.058594 1015.984375 1018.058594 L 1001.644531 1018.058594 " fill-opacity="1" fill-rule="nonzero"/></g><g clip-path="url(#1f5236d756)"><path fill="#d4a35c" d="M 941.398438 1026.148438 C 941.398438 1024.421875 942.800781 1023.019531 944.527344 1023.019531 L 968.914062 1023.019531 C 970.640625 1023.019531 972.042969 1024.421875 972.042969 1026.148438 C 972.042969 1027.871094 970.640625 1029.273438 968.914062 1029.273438 L 944.527344 1029.273438 C 942.800781 1029.273438 941.398438 1027.871094 941.398438 1026.148438 Z M 972.042969 1018.683594 C 971.078125 1018.285156 970.027344 1018.058594 968.914062 1018.058594 L 944.527344 1018.058594 C 940.066406 1018.058594 936.4375 1021.6875 936.4375 1026.148438 C 936.4375 1030.613281 940.066406 1034.238281 944.527344 1034.238281 L 968.914062 1034.238281 C 972.511719 1034.238281 975.539062 1031.859375 976.578125 1028.601562 C 976.828125 1027.820312 977.003906 1027.011719 977.003906 1026.148438 C 977.003906 1022.792969 974.949219 1019.910156 972.042969 1018.683594 " fill-opacity="1" fill-rule="nonzero"/></g><path fill="#d4a35c" d="M 1044.710938 841.246094 L 1044.777344 841.417969 L 1044.710938 841.246094 " fill-opacity="1" fill-rule="nonzero"/><path fill="#d4a35c" d="M 1011.632812 801.21875 C 1010.632812 801.570312 1009.960938 802.523438 1009.972656 803.585938 L 1009.972656 803.894531 L 1010.265625 830.296875 C 1010.269531 830.898438 1010.503906 831.488281 1010.910156 831.933594 L 1015.226562 836.695312 L 1025.140625 847.617188 L 1024.976562 846.53125 C 1024.796875 845.285156 1025.574219 844.09375 1026.792969 843.773438 L 1028.046875 843.4375 L 1015.21875 829.296875 L 1015.011719 810.90625 L 1038.167969 840.714844 L 1041.773438 839.746094 C 1042.515625 839.546875 1043.308594 839.699219 1043.917969 840.167969 C 1044.117188 840.320312 1044.273438 840.503906 1044.414062 840.695312 L 1044.375 840.625 L 1014.714844 802.433594 L 1014.414062 802.039062 C 1013.761719 801.199219 1012.640625 800.871094 1011.632812 801.21875 " fill-opacity="1" fill-rule="nonzero"/><path fill="#d4a35c" d="M 925.710938 861.902344 C 925.042969 861.902344 924.386719 861.632812 923.90625 861.121094 L 923.105469 860.269531 C 923.3125 861.050781 923.878906 861.703125 924.667969 861.976562 C 924.941406 862.070312 925.21875 862.117188 925.488281 862.117188 C 926.140625 862.117188 926.761719 861.847656 927.234375 861.378906 C 927.046875 861.523438 926.839844 861.644531 926.609375 861.734375 C 926.316406 861.847656 926.011719 861.902344 925.710938 861.902344 " fill-opacity="1" fill-rule="nonzero"/><path fill="#d4a35c" d="M 950.246094 830.828125 L 950.554688 830.421875 C 950.867188 830.007812 951.039062 829.511719 951.054688 828.992188 L 951.808594 800.890625 L 951.816406 800.84375 C 951.839844 799.714844 951.113281 798.707031 950.027344 798.394531 C 948.945312 798.074219 947.785156 798.53125 947.203125 799.5 L 946.175781 801.21875 L 925.40625 835.863281 L 927.636719 837.75 C 928.203125 838.226562 928.527344 838.9375 928.515625 839.679688 L 928.5 840.347656 L 946.59375 810.164062 L 946.109375 828.070312 L 928.320312 851.738281 L 928.191406 859.460938 C 928.183594 859.875 928.054688 860.261719 927.859375 860.605469 L 945.28125 837.425781 L 950.246094 830.828125 " fill-opacity="1" fill-rule="nonzero"/><path fill="#d4a35c" d="M 1043.957031 900.753906 L 1043.175781 903.519531 C 1042.300781 906.738281 1039.363281 908.992188 1036.019531 908.992188 C 1035.367188 908.992188 1034.714844 908.902344 1034.078125 908.726562 C 1031.324219 907.984375 1029.222656 905.671875 1028.726562 902.847656 C 1028.5625 901.941406 1027.917969 901.207031 1027.046875 900.921875 C 1026.792969 900.835938 1026.535156 900.796875 1026.285156 900.796875 C 1025.644531 900.796875 1025.023438 901.042969 1024.550781 901.503906 L 1021.667969 904.292969 C 1021.429688 904.527344 1021.113281 904.65625 1020.785156 904.65625 C 1020.582031 904.65625 1020.195312 904.609375 1019.871094 904.273438 C 1019.632812 904.03125 1019.503906 903.707031 1019.511719 903.363281 C 1019.511719 903.023438 1019.652344 902.703125 1019.898438 902.464844 L 1032.175781 890.542969 C 1032.550781 890.179688 1032.945312 890.175781 1033.242188 890.214844 C 1034.011719 890.332031 1034.800781 890.058594 1035.347656 889.507812 C 1035.90625 888.953125 1036.164062 888.164062 1036.046875 887.390625 L 1030.210938 847.992188 L 1039.957031 845.375 L 1040.253906 890.945312 C 1040.261719 891.71875 1040.628906 892.441406 1041.25 892.910156 C 1043.683594 894.742188 1044.746094 897.832031 1043.957031 900.753906 Z M 1045.210938 889.761719 L 1044.894531 842.125 C 1044.894531 841.886719 1044.847656 841.652344 1044.777344 841.417969 L 1044.710938 841.246094 C 1044.636719 841.050781 1044.539062 840.863281 1044.414062 840.695312 C 1044.273438 840.503906 1044.117188 840.320312 1043.917969 840.167969 C 1043.308594 839.699219 1042.515625 839.546875 1041.773438 839.746094 L 1038.167969 840.714844 L 1028.046875 843.4375 L 1026.792969 843.773438 C 1025.574219 844.09375 1024.796875 845.285156 1024.976562 846.53125 L 1025.140625 847.617188 L 1030.773438 885.660156 C 1030.011719 885.957031 1029.320312 886.402344 1028.71875 886.984375 L 1016.441406 898.90625 L 1016.15625 899.234375 L 1016.835938 908.171875 C 1017.949219 909.097656 1019.316406 909.621094 1020.785156 909.621094 C 1022.417969 909.621094 1023.964844 908.992188 1025.125 907.855469 L 1025.28125 907.707031 C 1026.890625 910.511719 1029.574219 912.648438 1032.777344 913.515625 C 1033.84375 913.804688 1034.929688 913.957031 1036.019531 913.957031 L 1036.027344 913.957031 C 1041.597656 913.957031 1046.503906 910.195312 1047.957031 904.835938 L 1048.738281 902.078125 C 1049.960938 897.582031 1048.582031 892.875 1045.210938 889.761719 " fill-opacity="1" fill-rule="nonzero"/><path fill="#d4a35c" d="M 928.320312 851.738281 L 928.5 840.347656 L 928.515625 839.679688 C 928.527344 838.9375 928.203125 838.226562 927.636719 837.75 L 925.40625 835.863281 L 905.210938 818.765625 L 905.210938 825.265625 L 923.53125 840.773438 L 923.332031 853.277344 L 912.777344 842.085938 L 912.777344 849.316406 L 923.105469 860.269531 L 923.90625 861.121094 C 924.386719 861.632812 925.042969 861.902344 925.710938 861.902344 C 926.011719 861.902344 926.316406 861.847656 926.609375 861.734375 C 926.839844 861.644531 927.046875 861.523438 927.234375 861.378906 C 927.5 861.167969 927.699219 860.902344 927.859375 860.605469 C 928.054688 860.261719 928.183594 859.875 928.191406 859.460938 L 928.320312 851.738281 " fill-opacity="1" fill-rule="nonzero"/><path fill="#d4a35c" d="M 885.167969 816.546875 C 883.164062 816.59375 881.1875 815.851562 879.765625 814.429688 L 874.480469 809.136719 C 871.589844 806.246094 871.589844 801.542969 874.480469 798.65625 C 875.863281 797.273438 877.703125 796.507812 879.660156 796.507812 C 880.882812 796.507812 882.078125 796.824219 883.152344 797.394531 L 882.574219 791.910156 C 881.625 791.683594 880.648438 791.546875 879.660156 791.546875 C 876.378906 791.546875 873.289062 792.820312 870.96875 795.144531 C 866.144531 799.964844 866.144531 807.824219 870.96875 812.644531 L 876.257812 817.9375 C 878.742188 820.417969 882.183594 821.683594 885.683594 821.484375 L 885.167969 816.546875 " fill-opacity="1" fill-rule="nonzero"/><path fill="#d4a35c" d="M 983.265625 914.816406 C 983.195312 913.515625 982.136719 912.488281 980.828125 912.46875 C 979.53125 912.4375 978.433594 913.4375 978.316406 914.738281 L 975.835938 943.550781 L 949.148438 943.550781 L 950.199219 889.515625 L 1010.445312 889.515625 L 1014.535156 943.550781 L 984.808594 943.550781 Z M 1015.226562 886.9375 L 1015.21875 886.839844 L 1015.199219 886.777344 C 1015.175781 886.492188 1015.105469 886.226562 1014.988281 885.980469 L 1014.9375 885.882812 C 1014.8125 885.644531 1014.652344 885.425781 1014.453125 885.238281 L 1014.386719 885.179688 C 1014.179688 885 1013.941406 884.84375 1013.683594 884.734375 L 1013.628906 884.722656 C 1013.359375 884.613281 1013.0625 884.554688 1012.746094 884.554688 L 947.765625 884.554688 C 947.597656 884.554688 947.429688 884.566406 947.273438 884.597656 L 947.09375 884.65625 L 946.808594 884.742188 L 946.613281 884.84375 L 946.386719 884.96875 L 946.214844 885.109375 L 946.027344 885.269531 L 945.878906 885.445312 L 945.722656 885.632812 L 945.605469 885.832031 L 945.488281 886.046875 L 945.417969 886.277344 L 945.339844 886.511719 L 945.316406 886.757812 L 945.289062 886.984375 L 945.28125 887.023438 L 944.132812 945.980469 C 944.121094 946.652344 944.378906 947.292969 944.84375 947.769531 C 945.308594 948.242188 945.949219 948.511719 946.613281 948.511719 L 978.109375 948.511719 C 979.039062 948.511719 979.859375 947.996094 980.289062 947.226562 C 980.707031 947.996094 981.527344 948.511719 982.457031 948.511719 L 1017.242188 948.511719 C 1018.621094 948.511719 1019.722656 947.402344 1019.722656 946.03125 C 1019.722656 945.824219 1019.703125 945.632812 1019.652344 945.4375 L 1016.835938 908.171875 L 1016.15625 899.234375 L 1015.226562 886.9375 " fill-opacity="1" fill-rule="nonzero"/><path fill="#d4a35c" d="M 1036.9375 725.019531 C 1036.972656 725.304688 1037.023438 725.589844 1037.023438 725.878906 L 1037.023438 732.136719 C 1037.023438 734.429688 1035.839844 736.457031 1034.058594 737.648438 L 1032.726562 743.488281 C 1038.003906 742.402344 1041.984375 737.726562 1041.984375 732.136719 L 1041.984375 725.878906 C 1041.984375 722.695312 1040.695312 719.804688 1038.605469 717.707031 L 1036.9375 725.019531 " fill-opacity="1" fill-rule="nonzero"/><path fill="#d4a35c" d="M 925.445312 738.726562 C 921.960938 738.53125 919.183594 735.664062 919.183594 732.136719 L 919.183594 725.878906 C 919.183594 723.367188 920.605469 721.203125 922.671875 720.078125 C 922.425781 718.390625 922.179688 716.683594 921.929688 714.964844 C 917.445312 716.570312 914.21875 720.851562 914.21875 725.878906 L 914.21875 732.136719 C 914.21875 738.527344 919.421875 743.726562 925.8125 743.726562 L 926.199219 743.707031 C 925.992188 742.378906 925.742188 740.691406 925.445312 738.726562 " fill-opacity="1" fill-rule="nonzero"/><path fill="#d4a35c" d="M 927.332031 744.960938 C 927.796875 744.445312 928.460938 744.15625 929.160156 744.15625 L 930.460938 744.15625 L 930.890625 741.570312 C 929.367188 731.527344 925.761719 707.585938 923.796875 691.980469 C 929.050781 673.542969 962.832031 671.40625 987.878906 671.40625 C 993.40625 671.40625 998.789062 671.507812 1003.539062 671.605469 C 1007.574219 671.691406 1011.265625 671.761719 1014.464844 671.761719 C 1019.234375 671.761719 1022.316406 671.59375 1024.402344 671.210938 C 1025.496094 671.140625 1026.484375 671.109375 1027.386719 671.109375 C 1032.125 671.109375 1033.042969 672.097656 1033.179688 672.296875 C 1033.855469 673.285156 1032.5 676.769531 1031.40625 679.566406 C 1028.371094 687.375 1023.816406 699.050781 1035.316406 709.789062 L 1027.484375 744.15625 L 1029.46875 744.15625 C 1030.167969 744.15625 1030.824219 744.445312 1031.296875 744.960938 C 1031.769531 745.472656 1032.003906 746.164062 1031.9375 746.855469 L 1031.917969 747.054688 L 1032.726562 743.488281 L 1034.058594 737.648438 L 1036.9375 725.019531 L 1038.605469 717.707031 L 1040.480469 709.464844 C 1040.6875 708.5625 1040.375 707.625 1039.671875 707.023438 C 1029.4375 698.300781 1032.9375 689.304688 1036.035156 681.363281 C 1037.855469 676.683594 1039.433594 672.648438 1037.273438 669.492188 C 1035.375 666.714844 1031.441406 665.769531 1023.925781 666.269531 L 1023.628906 666.308594 C 1021.332031 666.746094 1017.292969 666.796875 1014.464844 666.796875 C 1011.296875 666.796875 1007.632812 666.726562 1003.640625 666.644531 C 998.863281 666.546875 993.457031 666.441406 987.878906 666.441406 C 958.710938 666.441406 924.5 669.253906 918.867188 691.1875 C 918.789062 691.488281 918.769531 691.804688 918.808594 692.109375 C 919.640625 698.738281 920.777344 706.941406 921.929688 714.964844 C 922.179688 716.683594 922.425781 718.390625 922.671875 720.078125 C 923.707031 727.171875 924.703125 733.808594 925.445312 738.726562 C 925.742188 740.691406 925.992188 742.378906 926.199219 743.707031 C 926.503906 745.6875 926.683594 746.875 926.703125 746.992188 L 926.691406 746.855469 C 926.628906 746.164062 926.859375 745.472656 927.332031 744.960938 " fill-opacity="1" fill-rule="nonzero"/><path fill="#d4a35c" d="M 932.550781 749.117188 C 933.761719 749.117188 934.796875 748.238281 935 747.050781 L 942.089844 705.226562 C 970.640625 720.335938 995.558594 720.710938 1009.164062 720.910156 C 1012.726562 720.960938 1015.910156 721.015625 1017.890625 721.324219 L 1021.726562 746.996094 C 1021.910156 748.210938 1022.949219 749.117188 1024.183594 749.117188 L 1026.675781 749.117188 C 1023.226562 772.554688 1003.324219 789.910156 979.316406 789.910156 C 955.304688 789.910156 935.394531 772.554688 931.953125 749.117188 Z M 970.871094 794.195312 C 973.625 794.636719 976.441406 794.875 979.316406 794.875 C 982.851562 794.875 986.304688 794.523438 989.652344 793.871094 C 991.332031 793.542969 992.984375 793.136719 994.613281 792.652344 C 996.035156 792.226562 997.4375 791.753906 998.800781 791.21875 C 1016.824219 784.148438 1029.980469 767.496094 1031.917969 747.054688 L 1031.9375 746.855469 C 1032.003906 746.164062 1031.769531 745.472656 1031.296875 744.960938 C 1030.824219 744.445312 1030.167969 744.15625 1029.46875 744.15625 L 1026.316406 744.15625 L 1022.554688 718.960938 C 1022.417969 718.066406 1021.816406 717.316406 1020.976562 717 C 1018.546875 716.089844 1014.84375 716.03125 1009.242188 715.949219 C 994.625 715.726562 970.175781 715.367188 941.445312 699.222656 C 940.738281 698.832031 939.886719 698.796875 939.15625 699.148438 C 938.433594 699.496094 937.917969 700.175781 937.78125 700.96875 L 930.890625 741.570312 L 930.460938 744.15625 L 929.160156 744.15625 C 928.460938 744.15625 927.796875 744.445312 927.332031 744.960938 C 926.859375 745.472656 926.628906 746.164062 926.691406 746.855469 L 926.703125 746.992188 C 928.617188 767.480469 941.8125 784.179688 959.886719 791.234375 C 961.839844 792 963.855469 792.636719 965.910156 793.167969 C 967.539062 793.589844 969.191406 793.929688 970.871094 794.195312 " fill-opacity="1" fill-rule="nonzero"/><path fill="#d4a35c" d="M 757.820312 808.378906 L 760.304688 808.378906 L 760.304688 725.054688 L 755.339844 727.890625 L 755.339844 746.667969 L 756.003906 747.539062 C 756.308594 747.941406 756.472656 748.425781 756.496094 748.921875 C 756.8125 749.355469 757 749.875 756.996094 750.421875 L 756.515625 780.132812 L 756.476562 780.355469 C 756.457031 780.535156 756.4375 780.710938 756.378906 780.878906 L 756.25 781.15625 L 756.03125 781.550781 L 755.8125 781.78125 L 755.496094 782.078125 L 755.339844 782.191406 L 755.339844 810.859375 C 755.339844 809.492188 756.453125 808.378906 757.820312 808.378906 " fill-opacity="1" fill-rule="nonzero"/><path fill="#d4a35c" d="M 756.800781 679.824219 L 758.332031 678.648438 C 759.082031 678.066406 760.089844 677.972656 760.9375 678.390625 C 761.554688 678.695312 762.003906 679.238281 762.203125 679.871094 C 764.988281 674.539062 770.566406 670.882812 776.988281 670.882812 L 787.035156 670.882812 L 787.035156 665.917969 L 776.988281 665.917969 C 767.785156 665.917969 759.929688 671.703125 756.800781 679.824219 " fill-opacity="1" fill-rule="nonzero"/><path fill="#d4a35c" d="M 854.519531 724.871094 L 854.519531 808.378906 L 857.226562 808.378906 C 858.226562 808.378906 859.09375 808.980469 859.480469 809.839844 L 859.480469 730.320312 L 854.519531 724.871094 " fill-opacity="1" fill-rule="nonzero"/><path fill="#d4a35c" d="M 828.238281 670.882812 L 837.832031 670.882812 C 844.726562 670.882812 850.660156 675.089844 853.199219 681.066406 L 853.199219 680.613281 C 853.199219 679.554688 853.878906 678.605469 854.886719 678.261719 C 855.894531 677.925781 857.007812 678.261719 857.652344 679.109375 L 857.867188 679.386719 C 854.628906 671.496094 846.875 665.917969 837.832031 665.917969 L 828.238281 665.917969 L 828.238281 670.882812 " fill-opacity="1" fill-rule="nonzero"/><path fill="#d4a35c" d="M 905.058594 741.503906 L 905.097656 741.628906 L 905.058594 741.503906 " fill-opacity="1" fill-rule="nonzero"/><path fill="#d4a35c" d="M 877.398438 742.628906 L 858.164062 721.5 L 858.164062 687.96875 L 897.722656 739.871094 L 902.730469 739.871094 C 903.550781 739.871094 904.273438 740.269531 904.726562 740.882812 L 904.703125 740.847656 L 857.867188 679.386719 L 857.652344 679.109375 C 857.007812 678.261719 855.894531 677.925781 854.886719 678.261719 C 853.878906 678.605469 853.199219 679.554688 853.199219 680.613281 L 853.199219 722.460938 C 853.199219 723.082031 853.433594 723.675781 853.847656 724.136719 L 854.519531 724.871094 L 859.480469 730.320312 L 878.277344 750.957031 L 877.398438 742.628906 " fill-opacity="1" fill-rule="nonzero"/><path fill="#d4a35c" d="M 707.683594 754.054688 C 707.96875 754.164062 708.265625 754.234375 708.5625 754.234375 C 708.988281 754.234375 709.414062 754.125 709.796875 753.910156 L 710.738281 753.371094 L 710.558594 753.445312 L 707.683594 754.054688 " fill-opacity="1" fill-rule="nonzero"/><path fill="#d4a35c" d="M 762.324219 722.460938 L 762.324219 680.613281 C 762.324219 680.355469 762.273438 680.109375 762.203125 679.871094 C 762.003906 679.238281 761.554688 678.695312 760.9375 678.390625 C 760.089844 677.972656 759.082031 678.066406 758.332031 678.648438 L 756.800781 679.824219 L 723.761719 705.183594 L 726.765625 709.128906 L 757.363281 685.648438 L 757.363281 721.019531 L 742.34375 729.601562 L 745.382812 733.582031 L 755.339844 727.890625 L 760.304688 725.054688 L 761.070312 724.621094 C 761.847656 724.175781 762.324219 723.351562 762.324219 722.460938 " fill-opacity="1" fill-rule="nonzero"/><path fill="#d4a35c" d="M 712.523438 750.933594 C 712.550781 751.6875 712.207031 752.355469 711.675781 752.832031 L 720.820312 747.613281 L 717.375 743.863281 L 712.382812 746.714844 L 712.523438 750.933594 " fill-opacity="1" fill-rule="nonzero"/><path fill="#d4a35c" d="M 900.300781 548.898438 C 902.808594 551.109375 904.398438 554.328125 904.398438 557.921875 L 904.398438 567.886719 C 904.398438 574.179688 899.539062 579.355469 893.375 579.871094 C 892.816406 581.714844 892.28125 583.386719 891.804688 584.859375 C 891.984375 584.867188 892.164062 584.886719 892.351562 584.886719 C 901.734375 584.886719 909.359375 577.261719 909.359375 567.886719 L 909.359375 557.921875 C 909.359375 551.691406 905.980469 546.246094 900.960938 543.285156 C 900.777344 545.164062 900.554688 547.039062 900.300781 548.898438 " fill-opacity="1" fill-rule="nonzero"/><g clip-path="url(#6e4aa16aad)"><path fill="#d4a35c" d="M 728.886719 506.871094 L 728.859375 503.777344 C 734.695312 481.230469 746.765625 470.722656 766.824219 470.722656 C 782.816406 470.722656 802.054688 477.296875 820.65625 483.652344 C 838.953125 489.902344 857.871094 496.371094 873.496094 496.371094 C 876.011719 496.371094 878.421875 496.203125 880.675781 495.875 C 910.949219 512.003906 889.230469 577.429688 885.289062 588.511719 L 887.027344 588.511719 C 887.726562 588.511719 888.386719 588.800781 888.855469 589.320312 C 889.328125 589.832031 889.5625 590.523438 889.496094 591.214844 L 889.453125 591.585938 C 889.792969 590.691406 890.667969 588.316406 891.804688 584.859375 C 892.28125 583.386719 892.816406 581.714844 893.375 579.871094 C 895.789062 571.871094 898.691406 560.71875 900.300781 548.898438 C 900.554688 547.039062 900.777344 545.164062 900.960938 543.285156 C 903.015625 522.023438 900.085938 499.9375 882.195312 491.070312 C 881.730469 490.847656 881.199219 490.761719 880.683594 490.851562 C 878.464844 491.222656 876.050781 491.40625 873.496094 491.40625 C 858.699219 491.40625 841 485.359375 822.261719 478.957031 C 803.273438 472.46875 783.636719 465.761719 766.824219 465.761719 C 745.039062 465.761719 731.21875 477.203125 724.59375 500.65625 C 726.144531 502.605469 727.574219 504.679688 728.886719 506.871094 " fill-opacity="1" fill-rule="nonzero"/></g><path fill="#d4a35c" d="M 823.273438 664.820312 L 823.273438 672.898438 C 823.273438 682.480469 814.957031 685.878906 807.835938 685.878906 L 807.429688 685.878906 C 800.316406 685.878906 792 682.480469 792 672.898438 L 792 665.015625 C 790.324219 664.710938 788.671875 664.363281 787.035156 663.960938 L 787.035156 672.898438 C 787.035156 683.464844 795.421875 690.84375 807.429688 690.84375 L 807.835938 690.84375 C 819.851562 690.84375 828.238281 683.464844 828.238281 672.898438 L 828.238281 663.683594 C 826.597656 664.109375 824.949219 664.496094 823.273438 664.820312 " fill-opacity="1" fill-rule="nonzero"/><path fill="#d4a35c" d="M 888.855469 589.320312 C 888.386719 588.800781 887.726562 588.511719 887.027344 588.511719 L 883.675781 588.511719 L 873.671875 536.203125 C 873.515625 535.363281 872.933594 534.664062 872.140625 534.355469 C 868.558594 532.953125 864.179688 532.304688 858.363281 532.304688 C 853.027344 532.304688 846.984375 532.828125 839.984375 533.441406 C 830.75 534.257812 820.289062 535.167969 808.152344 535.167969 C 794.363281 535.167969 782.539062 532.273438 772.101562 529.722656 C 764.542969 527.867188 758.003906 526.265625 752.414062 526.265625 C 749.652344 526.265625 747.289062 526.652344 745.183594 527.445312 C 744.359375 527.757812 743.761719 528.480469 743.613281 529.351562 L 740.082031 550.050781 C 740.1875 552.34375 740.257812 554.675781 740.265625 557.085938 C 741.433594 557.609375 742.550781 558.210938 743.605469 558.921875 L 748.25 531.683594 C 749.472656 531.375 750.847656 531.226562 752.414062 531.226562 C 757.40625 531.226562 763.667969 532.765625 770.917969 534.542969 C 781.097656 537.03125 793.761719 540.132812 808.152344 540.132812 C 820.503906 540.132812 831.082031 539.207031 840.417969 538.386719 C 847.300781 537.785156 853.246094 537.269531 858.363281 537.269531 C 862.835938 537.269531 866.285156 537.667969 869.070312 538.535156 L 879.183594 591.457031 C 879.410156 592.628906 880.429688 593.476562 881.621094 593.476562 L 884.261719 593.476562 C 879.390625 632.402344 846.6875 661.421875 807.113281 661.421875 C 770.914062 661.421875 740.476562 637.136719 731.8125 603.210938 L 731.617188 603.027344 C 730.777344 605.609375 729.875 608.226562 728.917969 610.863281 C 737.996094 637.3125 759.855469 657.28125 787.035156 663.960938 C 788.671875 664.363281 790.324219 664.710938 792 665.015625 C 796.898438 665.90625 801.949219 666.386719 807.113281 666.386719 C 812.644531 666.386719 818.039062 665.84375 823.273438 664.820312 C 824.949219 664.496094 826.597656 664.109375 828.238281 663.683594 C 861.160156 655.132812 886.078125 627 889.453125 591.585938 L 889.496094 591.214844 C 889.5625 590.523438 889.328125 589.832031 888.855469 589.320312 " fill-opacity="1" fill-rule="nonzero"/><path fill="#d4a35c" d="M 857.226562 822.570312 L 854.519531 822.570312 L 854.519531 855.507812 C 854.304688 855.835938 854.167969 856.222656 854.136719 856.636719 L 841.257812 1012.144531 L 846.234375 1012.144531 L 858.96875 858.351562 C 859.292969 857.929688 859.480469 857.414062 859.480469 856.84375 L 859.480469 821.109375 C 859.09375 821.96875 858.226562 822.570312 857.226562 822.570312 " fill-opacity="1" fill-rule="nonzero"/><path fill="#d4a35c" d="M 813.679688 1024.828125 C 813.679688 1025.347656 813.839844 1025.832031 814.113281 1026.230469 C 813.832031 1025.261719 813.679688 1024.246094 813.679688 1023.195312 L 813.679688 1024.828125 " fill-opacity="1" fill-rule="nonzero"/><path fill="#d4a35c" d="M 801.140625 1024.828125 L 801.140625 1023.195312 C 801.140625 1024.246094 800.988281 1025.261719 800.710938 1026.230469 C 800.980469 1025.832031 801.140625 1025.347656 801.140625 1024.828125 " fill-opacity="1" fill-rule="nonzero"/><path fill="#d4a35c" d="M 836.804688 809.75 C 837.214844 808.941406 838.046875 808.378906 839.015625 808.378906 L 834.597656 808.378906 C 835.566406 808.378906 836.398438 808.941406 836.804688 809.75 " fill-opacity="1" fill-rule="nonzero"/><path fill="#d4a35c" d="M 778.460938 809.742188 C 778.875 808.933594 779.703125 808.378906 780.671875 808.378906 L 776.257812 808.378906 C 777.226562 808.378906 778.054688 808.933594 778.460938 809.742188 " fill-opacity="1" fill-rule="nonzero"/><path fill="#d4a35c" d="M 818.640625 1013.984375 L 818.640625 856.84375 C 818.640625 855.472656 817.53125 854.363281 816.160156 854.363281 L 798.660156 854.363281 C 797.292969 854.363281 796.179688 855.472656 796.179688 856.84375 L 796.179688 1013.984375 C 799.164062 1015.964844 801.140625 1019.347656 801.140625 1023.195312 L 801.140625 859.324219 L 813.679688 859.324219 L 813.679688 1023.195312 C 813.679688 1019.347656 815.65625 1015.964844 818.640625 1013.984375 " fill-opacity="1" fill-rule="nonzero"/><path fill="#d4a35c" d="M 773.570312 1012.144531 L 760.691406 856.636719 C 760.652344 856.222656 760.515625 855.835938 760.304688 855.507812 L 760.304688 822.570312 L 758.046875 822.570312 C 756.671875 822.570312 755.566406 821.457031 755.566406 820.089844 L 755.566406 810.859375 C 755.566406 809.492188 756.671875 808.378906 758.046875 808.378906 L 757.820312 808.378906 C 756.453125 808.378906 755.339844 809.492188 755.339844 810.859375 L 755.339844 856.84375 C 755.339844 857.414062 755.527344 857.929688 755.851562 858.351562 L 768.585938 1012.144531 L 773.570312 1012.144531 " fill-opacity="1" fill-rule="nonzero"/><g clip-path="url(#ac2f66f1d4)"><path fill="#d4a35c" d="M 790.09375 1029.273438 L 752.878906 1029.273438 C 749.523438 1029.273438 746.796875 1026.546875 746.796875 1023.195312 C 746.796875 1019.839844 749.523438 1017.105469 752.878906 1017.105469 L 790.09375 1017.105469 C 793.453125 1017.105469 796.179688 1019.839844 796.179688 1023.195312 C 796.179688 1026.546875 793.453125 1029.273438 790.09375 1029.273438 Z M 796.179688 1013.984375 C 794.433594 1012.824219 792.339844 1012.144531 790.09375 1012.144531 L 752.878906 1012.144531 C 746.785156 1012.144531 741.835938 1017.101562 741.835938 1023.195312 C 741.835938 1029.289062 746.785156 1034.238281 752.878906 1034.238281 L 790.09375 1034.238281 C 795.132812 1034.238281 799.386719 1030.84375 800.710938 1026.230469 C 800.988281 1025.261719 801.140625 1024.246094 801.140625 1023.195312 C 801.140625 1019.347656 799.164062 1015.964844 796.179688 1013.984375 " fill-opacity="1" fill-rule="nonzero"/></g><g clip-path="url(#7d105fa298)"><path fill="#d4a35c" d="M 861.941406 1029.273438 L 824.730469 1029.273438 C 821.375 1029.273438 818.640625 1026.546875 818.640625 1023.195312 C 818.640625 1019.839844 821.375 1017.105469 824.730469 1017.105469 L 861.941406 1017.105469 C 865.296875 1017.105469 868.03125 1019.839844 868.03125 1023.195312 C 868.03125 1026.546875 865.296875 1029.273438 861.941406 1029.273438 Z M 841.257812 1012.144531 L 824.730469 1012.144531 C 822.480469 1012.144531 820.386719 1012.824219 818.640625 1013.984375 C 815.65625 1015.964844 813.679688 1019.347656 813.679688 1023.195312 C 813.679688 1024.246094 813.832031 1025.261719 814.113281 1026.230469 C 815.4375 1030.84375 819.6875 1034.238281 824.730469 1034.238281 L 861.941406 1034.238281 C 868.035156 1034.238281 872.992188 1029.289062 872.992188 1023.195312 C 872.992188 1017.101562 868.035156 1012.144531 861.941406 1012.144531 L 841.257812 1012.144531 " fill-opacity="1" fill-rule="nonzero"/></g><path fill="#d4a35c" d="M 773.777344 813.34375 L 773.777344 817.609375 L 760.527344 817.609375 L 760.527344 813.34375 Z M 776.257812 822.570312 C 777.226562 822.570312 778.054688 822.007812 778.460938 821.199219 C 778.292969 820.863281 778.191406 820.488281 778.191406 820.089844 L 778.191406 810.859375 C 778.191406 810.453125 778.292969 810.085938 778.460938 809.742188 C 778.054688 808.933594 777.226562 808.378906 776.257812 808.378906 L 758.046875 808.378906 C 756.671875 808.378906 755.566406 809.492188 755.566406 810.859375 L 755.566406 820.089844 C 755.566406 821.457031 756.671875 822.570312 758.046875 822.570312 L 776.257812 822.570312 " fill-opacity="1" fill-rule="nonzero"/><path fill="#d4a35c" d="M 778.460938 809.742188 C 778.292969 810.085938 778.191406 810.453125 778.191406 810.859375 L 778.191406 820.089844 C 778.191406 820.488281 778.292969 820.863281 778.460938 821.199219 C 778.875 822.007812 779.703125 822.570312 780.671875 822.570312 L 797.296875 822.570312 C 795.8125 821.296875 794.730469 819.570312 794.273438 817.609375 L 783.152344 817.609375 L 783.152344 813.34375 L 794.273438 813.34375 C 794.738281 811.378906 795.816406 809.644531 797.304688 808.378906 L 780.671875 808.378906 C 779.703125 808.378906 778.875 808.933594 778.460938 809.742188 " fill-opacity="1" fill-rule="nonzero"/><path fill="#d4a35c" d="M 834.597656 808.378906 L 817.964844 808.378906 C 819.449219 809.644531 820.527344 811.378906 820.992188 813.34375 L 832.113281 813.34375 L 832.113281 817.609375 L 820.992188 817.609375 C 820.535156 819.570312 819.457031 821.296875 817.96875 822.570312 L 834.597656 822.570312 C 835.566406 822.570312 836.398438 822.007812 836.804688 821.199219 C 836.636719 820.863281 836.535156 820.488281 836.535156 820.089844 L 836.535156 810.859375 C 836.535156 810.460938 836.636719 810.085938 836.804688 809.75 C 836.398438 808.941406 835.566406 808.378906 834.597656 808.378906 " fill-opacity="1" fill-rule="nonzero"/><path fill="#d4a35c" d="M 854.746094 817.609375 L 841.496094 817.609375 L 841.496094 813.34375 L 854.746094 813.34375 Z M 857.226562 808.378906 L 839.015625 808.378906 C 838.046875 808.378906 837.214844 808.941406 836.804688 809.75 C 836.636719 810.085938 836.535156 810.460938 836.535156 810.859375 L 836.535156 820.089844 C 836.535156 820.488281 836.636719 820.863281 836.804688 821.199219 C 837.214844 822.007812 838.046875 822.570312 839.015625 822.570312 L 857.226562 822.570312 C 858.226562 822.570312 859.09375 821.96875 859.480469 821.109375 C 859.625 820.800781 859.707031 820.449219 859.707031 820.089844 L 859.707031 810.859375 C 859.707031 810.492188 859.625 810.148438 859.480469 809.839844 C 859.09375 808.980469 858.226562 808.378906 857.226562 808.378906 " fill-opacity="1" fill-rule="nonzero"/><path fill="#d4a35c" d="M 798.984375 815.476562 C 798.984375 813.066406 800.941406 811.101562 803.359375 811.101562 L 811.90625 811.101562 C 814.324219 811.101562 816.289062 813.066406 816.289062 815.476562 C 816.289062 817.890625 814.324219 819.855469 811.90625 819.855469 L 803.359375 819.855469 C 800.941406 819.855469 798.984375 817.890625 798.984375 815.476562 Z M 794.273438 813.34375 C 794.113281 814.027344 794.019531 814.738281 794.019531 815.476562 C 794.019531 816.210938 794.113281 816.921875 794.273438 817.609375 C 794.730469 819.570312 795.8125 821.296875 797.296875 822.570312 C 798.933594 823.964844 801.046875 824.820312 803.359375 824.820312 L 811.90625 824.820312 C 814.222656 824.820312 816.339844 823.964844 817.96875 822.570312 C 819.457031 821.296875 820.535156 819.570312 820.992188 817.609375 C 821.15625 816.921875 821.253906 816.210938 821.253906 815.476562 C 821.253906 814.738281 821.15625 814.027344 820.992188 813.34375 C 820.527344 811.378906 819.449219 809.644531 817.964844 808.378906 C 816.328125 806.984375 814.222656 806.136719 811.90625 806.136719 L 803.359375 806.136719 C 801.050781 806.136719 798.9375 806.984375 797.304688 808.378906 C 795.816406 809.644531 794.738281 811.378906 794.273438 813.34375 " fill-opacity="1" fill-rule="nonzero"/><path fill="#d4a35c" d="M 907.816406 840.742188 L 907.816406 852.238281 C 907.816406 859.253906 902.105469 864.96875 895.078125 864.96875 C 888.527344 864.96875 883.085938 860.0625 882.414062 853.554688 C 882.304688 852.488281 881.527344 851.609375 880.480469 851.382812 C 880.300781 851.34375 880.125 851.324219 879.945312 851.324219 C 879.085938 851.324219 878.265625 851.777344 877.8125 852.539062 L 875.992188 855.617188 C 875.09375 857.136719 873 857.679688 871.472656 856.773438 C 870.71875 856.320312 870.183594 855.605469 869.960938 854.75 C 869.742188 853.898438 869.871094 853.011719 870.324219 852.257812 L 883.746094 829.621094 C 884.546875 828.269531 886.277344 827.675781 887.753906 828.238281 C 888.558594 828.554688 889.472656 828.417969 890.15625 827.894531 C 890.839844 827.363281 891.203125 826.523438 891.113281 825.664062 L 882.621094 744.832031 L 900.25 744.832031 L 900.25 827.605469 C 900.25 828.484375 900.722656 829.296875 901.484375 829.742188 C 905.386719 832.023438 907.816406 836.238281 907.816406 840.742188 Z M 912.777344 842.085938 L 912.777344 840.742188 C 912.777344 834.972656 909.910156 829.542969 905.210938 826.246094 L 905.210938 742.351562 C 905.210938 742.097656 905.167969 741.859375 905.097656 741.628906 L 905.058594 741.503906 C 904.972656 741.277344 904.863281 741.070312 904.726562 740.882812 C 904.273438 740.269531 903.550781 739.871094 902.730469 739.871094 L 879.867188 739.871094 C 879.164062 739.871094 878.492188 740.167969 878.019531 740.691406 C 877.554688 741.207031 877.328125 741.90625 877.398438 742.609375 L 877.398438 742.628906 L 878.277344 750.957031 L 882.574219 791.910156 L 883.152344 797.394531 L 885.167969 816.546875 L 885.683594 821.484375 L 885.851562 823.085938 C 883.230469 823.320312 880.832031 824.804688 879.472656 827.085938 L 866.054688 849.722656 C 864.929688 851.617188 864.605469 853.839844 865.15625 855.980469 C 865.699219 858.117188 867.042969 859.914062 868.941406 861.039062 C 870.214844 861.792969 871.675781 862.195312 873.148438 862.195312 C 875.378906 862.195312 877.503906 861.285156 879.035156 859.734375 C 881.859375 865.8125 888.003906 869.929688 895.078125 869.929688 C 904.835938 869.929688 912.777344 861.996094 912.777344 852.238281 L 912.777344 842.085938 " fill-opacity="1" fill-rule="nonzero"/><path fill="#d4a35c" d="M 614.617188 787.578125 L 608.925781 794.3125 C 608.296875 795.054688 607.378906 795.480469 606.410156 795.480469 C 605.863281 795.480469 605.046875 795.347656 604.285156 794.707031 C 602.894531 793.53125 602.722656 791.449219 603.890625 790.058594 L 606.199219 787.328125 C 606.890625 786.511719 606.980469 785.34375 606.417969 784.425781 C 605.960938 783.683594 605.152344 783.242188 604.304688 783.242188 C 604.117188 783.242188 603.921875 783.269531 603.734375 783.3125 C 602.78125 783.539062 601.796875 783.648438 600.820312 783.648438 C 596.34375 783.648438 592.296875 781.277344 590.011719 777.570312 L 584.804688 778.339844 C 584.9375 778.628906 585.054688 778.933594 585.203125 779.21875 C 587.625 783.773438 591.925781 787.015625 596.917969 788.152344 C 597.605469 788.308594 598.296875 788.449219 599.007812 788.523438 C 597.363281 791.84375 598.121094 795.992188 601.082031 798.492188 L 601.183594 798.570312 C 602.65625 799.773438 604.503906 800.445312 606.40625 800.445312 L 606.410156 800.445312 C 608.847656 800.445312 611.148438 799.371094 612.71875 797.511719 L 617.714844 791.597656 C 616.660156 790.28125 615.632812 788.9375 614.617188 787.578125 " fill-opacity="1" fill-rule="nonzero"/><path fill="#d4a35c" d="M 702.507812 750.078125 L 701.679688 755.332031 L 707.683594 754.054688 L 710.558594 753.445312 L 710.738281 753.371094 C 711.101562 753.265625 711.40625 753.078125 711.675781 752.832031 C 712.207031 752.355469 712.550781 751.6875 712.523438 750.933594 L 712.382812 746.714844 L 712.101562 738.125 L 706.953125 732.515625 L 707.488281 749.019531 L 702.507812 750.078125 " fill-opacity="1" fill-rule="nonzero"/><path fill="#d4a35c" d="M 568.757812 780.695312 L 568.394531 780.730469 C 567.8125 780.730469 567.238281 780.523438 566.792969 780.132812 C 566.242188 779.675781 565.925781 778.996094 565.914062 778.285156 L 565.757812 768.414062 L 565.757812 780.089844 C 565.757812 781.097656 566.367188 782.003906 567.289062 782.390625 L 567.679688 782.5 C 567.867188 782.542969 568.046875 782.570312 568.242188 782.570312 C 568.886719 782.570312 569.527344 782.320312 570 781.839844 L 571.535156 780.289062 L 568.757812 780.695312 " fill-opacity="1" fill-rule="nonzero"/><path fill="#d4a35c" d="M 570.128906 742.417969 L 567.328125 746.132812 C 567.550781 746.082031 567.769531 746.046875 568.007812 746.054688 L 573.457031 746.253906 L 582.617188 734.105469 C 582.199219 733.304688 581.804688 732.535156 581.449219 731.855469 C 580.976562 730.964844 580.550781 730.0625 580.148438 729.15625 L 580.144531 729.144531 L 575.945312 734.714844 L 570.128906 742.417969 " fill-opacity="1" fill-rule="nonzero"/><path fill="#d4a35c" d="M 748.40625 577.191406 C 748.40625 581.550781 746.738281 585.527344 744.023438 588.542969 C 745.402344 589.527344 746.507812 590.859375 747.203125 592.410156 C 751.011719 588.453125 753.371094 583.097656 753.371094 577.191406 C 753.371094 569.585938 749.484375 562.871094 743.605469 558.921875 C 742.550781 558.210938 741.433594 557.609375 740.265625 557.085938 L 740.265625 557.441406 C 740.265625 559.105469 740.207031 560.828125 740.101562 562.59375 C 745.066406 565.570312 748.40625 570.992188 748.40625 577.191406 " fill-opacity="1" fill-rule="nonzero"/><path fill="#d4a35c" d="M 731.8125 603.210938 C 733.539062 604.886719 735.890625 605.925781 738.472656 605.925781 C 743.761719 605.925781 748.058594 601.625 748.058594 596.34375 C 748.058594 594.941406 747.746094 593.609375 747.203125 592.410156 C 746.507812 590.859375 745.402344 589.527344 744.023438 588.542969 C 742.460938 587.417969 740.546875 586.753906 738.472656 586.753906 C 737.6875 586.753906 736.921875 586.863281 736.195312 587.046875 C 735.574219 589.589844 734.886719 592.1875 734.132812 594.820312 C 734.765625 593.023438 736.464844 591.71875 738.472656 591.71875 C 741.027344 591.71875 743.09375 593.792969 743.09375 596.34375 C 743.09375 598.890625 741.027344 600.964844 738.472656 600.964844 C 735.929688 600.964844 733.855469 598.890625 733.855469 596.34375 C 733.855469 596.054688 733.894531 595.773438 733.9375 595.503906 C 733.222656 597.980469 732.453125 600.484375 731.617188 603.027344 L 731.8125 603.210938 " fill-opacity="1" fill-rule="nonzero"/><path fill="#d4a35c" d="M 578.882812 558.328125 C 578.882812 558.03125 578.882812 557.738281 578.882812 557.441406 C 578.882812 506.957031 606.484375 481.351562 660.910156 481.351562 C 684.664062 481.351562 702.054688 486.40625 714.082031 496.789062 C 728.363281 509.132812 735.300781 528.972656 735.300781 557.441406 C 735.300781 585.832031 719.527344 629.378906 695.113281 668.386719 C 693.835938 670.4375 692.542969 672.433594 691.25 674.398438 C 693.078125 674.519531 694.851562 674.855469 696.523438 675.414062 C 697.460938 673.972656 698.390625 672.511719 699.320312 671.023438 C 711.636719 651.339844 721.796875 630.46875 728.917969 610.863281 C 729.875 608.226562 730.777344 605.609375 731.617188 603.027344 C 732.453125 600.484375 733.222656 597.980469 733.9375 595.503906 C 734.007812 595.277344 734.066406 595.050781 734.132812 594.820312 C 734.886719 592.1875 735.574219 589.589844 736.195312 587.046875 C 738.332031 578.261719 739.667969 570.019531 740.101562 562.59375 C 740.207031 560.828125 740.265625 559.105469 740.265625 557.441406 L 740.265625 557.085938 C 740.257812 554.675781 740.1875 552.34375 740.082031 550.050781 C 739.296875 532.34375 735.597656 518.050781 728.886719 506.871094 C 727.574219 504.679688 726.144531 502.605469 724.59375 500.65625 C 722.398438 497.890625 719.992188 495.335938 717.324219 493.035156 C 704.363281 481.839844 685.90625 476.390625 660.910156 476.390625 C 604 476.390625 573.921875 504.417969 573.921875 557.441406 C 573.921875 559.105469 573.933594 560.71875 573.941406 562.367188 C 575.382812 560.789062 577.042969 559.425781 578.882812 558.328125 " fill-opacity="1" fill-rule="nonzero"/><path fill="#d4a35c" d="M 586.742188 671.636719 C 583.59375 654.46875 581.210938 632.835938 579.9375 605.707031 C 577.941406 605.28125 576.175781 604.222656 574.851562 602.761719 C 576.136719 632.015625 578.746094 656.550781 582.675781 676.347656 C 583.925781 674.6875 585.28125 673.117188 586.742188 671.636719 " fill-opacity="1" fill-rule="nonzero"/><path fill="#d4a35c" d="M 577.09375 588.09375 C 574.625 585.140625 573.140625 581.332031 573.140625 577.191406 C 573.140625 568.972656 578.949219 562.09375 586.773438 560.519531 L 586.773438 588.074219 C 587.929688 588.746094 588.933594 589.664062 589.714844 590.742188 C 590.417969 590 591.089844 589.261719 591.738281 588.539062 L 591.738281 557.71875 C 591.738281 557.046875 591.457031 556.394531 590.96875 555.929688 C 590.476562 555.460938 589.832031 555.214844 589.140625 555.246094 C 585.382812 555.421875 581.902344 556.523438 578.882812 558.328125 C 577.042969 559.425781 575.382812 560.789062 573.941406 562.367188 C 570.359375 566.277344 568.175781 571.476562 568.175781 577.191406 C 568.175781 582.714844 570.230469 587.761719 573.609375 591.625 C 574.445312 590.167969 575.644531 588.945312 577.09375 588.09375 " fill-opacity="1" fill-rule="nonzero"/><path fill="#d4a35c" d="M 616.382812 819.371094 L 620.886719 805.554688 C 619.375 803.28125 618.4375 800.695312 618.132812 797.988281 L 611.109375 819.519531 C 611.375 819.429688 611.644531 819.371094 611.921875 819.371094 L 616.382812 819.371094 " fill-opacity="1" fill-rule="nonzero"/><path fill="#d4a35c" d="M 702.507812 750.078125 L 705.523438 730.964844 L 702.046875 727.179688 C 701.597656 726.695312 701.363281 726.046875 701.394531 725.390625 L 701.402344 725.273438 L 695.347656 763.605469 C 696.085938 766.945312 696.664062 770.152344 697.09375 773.21875 L 698.984375 772.375 L 701.679688 755.332031 L 702.507812 750.078125 " fill-opacity="1" fill-rule="nonzero"/><path fill="#d4a35c" d="M 681.097656 674.332031 L 681.097656 679.296875 L 689.878906 679.296875 C 695.398438 679.296875 700.277344 682.0625 703.21875 686.28125 L 703.257812 685.488281 C 703.300781 684.445312 704 683.542969 704.996094 683.230469 C 705.988281 682.921875 707.074219 683.269531 707.710938 684.097656 L 707.722656 684.121094 C 705.117188 680.066406 701.183594 676.957031 696.523438 675.414062 C 694.851562 674.855469 693.078125 674.519531 691.25 674.398438 C 690.796875 674.371094 690.347656 674.332031 689.878906 674.332031 L 681.097656 674.332031 " fill-opacity="1" fill-rule="nonzero"/><path fill="#d4a35c" d="M 698.488281 798 L 705.453125 819.371094 L 709.914062 819.371094 C 710.191406 819.371094 710.460938 819.429688 710.726562 819.519531 L 703.277344 796.683594 L 698.488281 798 " fill-opacity="1" fill-rule="nonzero"/><path fill="#d4a35c" d="M 681.097656 688.375 L 681.097656 669.136719 C 679.476562 670.015625 677.824219 670.8125 676.136719 671.507812 L 676.136719 688.375 C 676.136719 692.910156 674.105469 696.976562 670.914062 699.734375 C 671.675781 701.265625 672.421875 702.785156 673.152344 704.289062 C 677.964844 700.640625 681.097656 694.875 681.097656 688.375 " fill-opacity="1" fill-rule="nonzero"/><path fill="#d4a35c" d="M 660.90625 675.140625 L 661.09375 675.132812 C 666.328125 674.726562 671.355469 673.488281 676.136719 671.507812 C 677.824219 670.8125 679.476562 670.015625 681.097656 669.136719 C 705.898438 655.675781 722.984375 621.230469 724.742188 577.398438 C 724.773438 576.558594 724.382812 575.761719 723.703125 575.277344 C 723.015625 574.792969 722.136719 574.683594 721.355469 574.988281 C 719.636719 575.660156 717.671875 576 715.523438 576 C 704.019531 576 688.257812 566.523438 673.015625 557.351562 C 656.988281 547.710938 641.855469 538.613281 629.753906 538.613281 C 621.558594 538.613281 615.621094 542.84375 612.097656 551.199219 C 610.988281 553.84375 609.992188 556.332031 609.042969 558.714844 C 604.894531 569.132812 601.511719 577.578125 591.738281 588.539062 C 591.089844 589.261719 590.417969 590 589.714844 590.742188 C 590.851562 592.316406 591.535156 594.25 591.535156 596.34375 C 591.535156 598.832031 590.574219 601.09375 589.007812 602.800781 C 593.300781 622.726562 606.78125 643.4375 622.835938 657.570312 C 626.203125 657.746094 629.5 658.261719 632.6875 659.121094 C 612.777344 644.535156 594.933594 617.996094 592.746094 594.773438 C 605.230469 581.714844 608.957031 572.351562 613.65625 560.550781 C 614.59375 558.191406 615.574219 555.738281 616.671875 553.125 C 619.417969 546.605469 623.574219 543.574219 629.753906 543.574219 C 640.472656 543.574219 655.714844 552.738281 670.457031 561.605469 C 686.28125 571.121094 702.644531 580.964844 715.523438 580.964844 C 716.941406 580.964844 718.308594 580.839844 719.613281 580.601562 C 716.632812 631.039062 692.738281 667.652344 660.808594 670.179688 L 660.640625 670.179688 C 657.460938 670.179688 654.160156 669.609375 650.804688 668.59375 C 653.054688 670.496094 655.140625 672.601562 657.023438 674.921875 C 658.238281 675.050781 659.445312 675.140625 660.640625 675.140625 L 660.90625 675.140625 " fill-opacity="1" fill-rule="nonzero"/><path fill="#d4a35c" d="M 754.933594 782.402344 L 755.199219 782.253906 L 754.824219 782.421875 Z M 754.933594 782.402344 " fill-opacity="1" fill-rule="nonzero"/><path fill="#d4a35c" d="M 756.476562 780.355469 C 756.457031 780.535156 756.4375 780.710938 756.378906 780.878906 C 756.4375 780.710938 756.457031 780.535156 756.476562 780.355469 " fill-opacity="1" fill-rule="nonzero"/><path fill="#d4a35c" d="M 756.25 781.15625 L 756.03125 781.550781 L 756.25 781.15625 " fill-opacity="1" fill-rule="nonzero"/><path fill="#d4a35c" d="M 755.8125 781.78125 L 755.496094 782.078125 L 755.8125 781.78125 " fill-opacity="1" fill-rule="nonzero"/><path fill="#d4a35c" d="M 742.34375 729.601562 L 726.765625 709.128906 L 723.761719 705.183594 L 707.722656 684.121094 L 707.710938 684.097656 C 707.074219 683.269531 705.988281 682.921875 704.996094 683.230469 C 704 683.542969 703.300781 684.445312 703.257812 685.488281 L 703.21875 686.28125 L 701.402344 725.273438 L 701.394531 725.390625 C 701.363281 726.046875 701.597656 726.695312 702.046875 727.179688 L 705.523438 730.964844 L 706.953125 732.515625 L 712.101562 738.125 L 717.375 743.863281 L 720.820312 747.613281 L 730.636719 758.292969 L 735.417969 756.167969 L 706.398438 724.582031 L 707.890625 692.535156 L 751.042969 749.214844 L 753.503906 748.117188 C 754.28125 747.773438 755.179688 747.851562 755.882812 748.316406 C 756.128906 748.476562 756.324219 748.691406 756.496094 748.921875 C 756.472656 748.425781 756.308594 747.941406 756.003906 747.539062 L 755.339844 746.667969 L 745.382812 733.582031 L 742.34375 729.601562 " fill-opacity="1" fill-rule="nonzero"/><path fill="#d4a35c" d="M 581.945312 591.71875 C 584.5 591.71875 586.574219 593.792969 586.574219 596.34375 C 586.574219 598.890625 584.5 600.964844 581.945312 600.964844 C 579.402344 600.964844 577.328125 598.890625 577.328125 596.34375 C 577.328125 593.792969 579.402344 591.71875 581.945312 591.71875 Z M 579.9375 605.707031 C 580.582031 605.847656 581.253906 605.925781 581.945312 605.925781 C 584.746094 605.925781 587.257812 604.710938 589.007812 602.800781 C 590.574219 601.09375 591.535156 598.832031 591.535156 596.34375 C 591.535156 594.25 590.851562 592.316406 589.714844 590.742188 C 588.933594 589.664062 587.929688 588.746094 586.773438 588.074219 C 585.351562 587.238281 583.703125 586.753906 581.945312 586.753906 C 580.175781 586.753906 578.523438 587.25 577.09375 588.09375 C 575.644531 588.945312 574.445312 590.167969 573.609375 591.625 C 572.824219 593.023438 572.363281 594.625 572.363281 596.34375 C 572.363281 598.8125 573.3125 601.0625 574.851562 602.761719 C 576.175781 604.222656 577.941406 605.28125 579.9375 605.707031 " fill-opacity="1" fill-rule="nonzero"/><path fill="#d4a35c" d="M 649.886719 941.753906 L 649.886719 1014.703125 C 652.535156 1016.6875 654.261719 1019.839844 654.261719 1023.386719 C 654.261719 1024.714844 654.015625 1025.972656 653.582031 1027.144531 C 654.332031 1026.714844 654.851562 1025.921875 654.851562 1024.992188 L 654.851562 941.753906 L 649.886719 941.753906 " fill-opacity="1" fill-rule="nonzero"/><path fill="#d4a35c" d="M 632.007812 1012.546875 L 626.050781 941.753906 L 621.066406 941.753906 L 627.023438 1012.546875 L 632.007812 1012.546875 " fill-opacity="1" fill-rule="nonzero"/><path fill="#d4a35c" d="M 695.683594 941.753906 L 689.839844 1012.546875 L 694.824219 1012.546875 L 700.660156 941.753906 L 695.683594 941.753906 " fill-opacity="1" fill-rule="nonzero"/><path fill="#d4a35c" d="M 671.949219 1013.933594 L 671.949219 941.753906 L 666.984375 941.753906 L 666.984375 1019.890625 C 667.859375 1017.351562 669.636719 1015.234375 671.949219 1013.933594 " fill-opacity="1" fill-rule="nonzero"/><path fill="#d4a35c" d="M 620.460938 787.179688 C 617.28125 783.0625 614.230469 778.765625 611.347656 774.429688 L 605.972656 775.222656 C 608.699219 779.386719 611.585938 783.539062 614.617188 787.578125 C 615.632812 788.9375 616.660156 790.28125 617.714844 791.597656 C 617.941406 791.882812 618.160156 792.167969 618.386719 792.445312 C 618.785156 790.542969 619.511719 788.789062 620.460938 787.179688 " fill-opacity="1" fill-rule="nonzero"/><path fill="#d4a35c" d="M 581.449219 731.855469 C 581.804688 732.535156 582.199219 733.304688 582.617188 734.105469 C 582.902344 734.65625 583.195312 735.21875 583.503906 735.824219 C 585.09375 738.902344 587.03125 742.640625 589.269531 746.816406 L 595.011719 747.023438 C 592.203125 741.835938 589.8125 737.207031 587.917969 733.550781 C 587.140625 732.050781 586.449219 730.714844 585.84375 729.550781 C 585.402344 728.710938 584.996094 727.855469 584.621094 726.996094 L 584.464844 726.707031 C 583.976562 725.90625 583.496094 725.089844 583.058594 724.246094 C 572.253906 703.644531 580.222656 678.09375 600.828125 667.289062 C 606.855469 664.125 613.625 662.449219 620.382812 662.449219 C 636.144531 662.449219 650.476562 671.109375 657.785156 685.054688 C 658.230469 685.898438 658.625 686.753906 659.003906 687.613281 L 659.160156 687.902344 C 659.652344 688.703125 660.128906 689.519531 660.574219 690.363281 C 680.910156 729.148438 689.976562 756.335938 692.277344 775.359375 L 697.09375 773.21875 C 696.664062 770.152344 696.085938 766.945312 695.347656 763.605469 C 691.703125 747.125 684.296875 727.335938 673.152344 704.289062 C 672.421875 702.785156 671.675781 701.265625 670.914062 699.734375 C 669.019531 695.914062 667.050781 692.039062 664.964844 688.050781 C 664.492188 687.160156 663.992188 686.300781 663.476562 685.449219 C 663.078125 684.542969 662.648438 683.644531 662.183594 682.746094 C 660.703125 679.9375 658.964844 677.324219 657.023438 674.921875 C 655.140625 672.601562 653.054688 670.496094 650.804688 668.59375 C 645.546875 664.160156 639.375 660.910156 632.6875 659.121094 C 629.5 658.261719 626.203125 657.746094 622.835938 657.570312 C 622.023438 657.53125 621.210938 657.488281 620.382812 657.488281 C 612.820312 657.488281 605.261719 659.355469 598.523438 662.890625 C 594.09375 665.214844 590.140625 668.167969 586.742188 671.636719 C 585.28125 673.117188 583.925781 674.6875 582.675781 676.347656 C 579.503906 680.59375 577.035156 685.394531 575.40625 690.609375 C 571.660156 702.628906 572.816406 715.398438 578.664062 726.550781 C 579.128906 727.4375 579.625 728.296875 580.144531 729.144531 L 580.148438 729.15625 C 580.550781 730.0625 580.976562 730.964844 581.449219 731.855469 " fill-opacity="1" fill-rule="nonzero"/><path fill="#d4a35c" d="M 680.296875 819.371094 L 680.53125 819.261719 C 688.738281 814.953125 694.027344 808.03125 696.457031 798.5625 L 690.585938 800.1875 C 687.960938 807.605469 683.386719 812.152344 678.222656 814.859375 C 673.996094 817.078125 669.609375 818.203125 665.164062 818.203125 C 659.710938 818.203125 654.308594 816.554688 649.027344 813.722656 C 648.21875 813.847656 647.398438 813.925781 646.578125 813.925781 C 646.289062 813.925781 645.996094 813.917969 645.699219 813.90625 L 639.753906 813.609375 C 642.910156 815.894531 646.132812 817.839844 649.410156 819.371094 L 680.296875 819.371094 " fill-opacity="1" fill-rule="nonzero"/><path fill="#d4a35c" d="M 607.089844 669.511719 C 605.667969 670.035156 604.277344 670.636719 602.929688 671.347656 L 602.902344 671.359375 L 602.933594 671.347656 C 604.277344 670.636719 605.667969 670.035156 607.089844 669.511719 " fill-opacity="1" fill-rule="nonzero"/><path fill="#d4a35c" d="M 633.894531 670.875 C 634.230469 671.039062 634.566406 671.191406 634.894531 671.367188 C 634.566406 671.191406 634.230469 671.039062 633.894531 670.875 " fill-opacity="1" fill-rule="nonzero"/><path fill="#d4a35c" d="M 621.125 667.488281 C 621.398438 667.503906 621.667969 667.542969 621.941406 667.5625 C 621.667969 667.542969 621.398438 667.503906 621.125 667.488281 " fill-opacity="1" fill-rule="nonzero"/><path fill="#d4a35c" d="M 635.859375 671.910156 C 636.175781 672.085938 636.492188 672.257812 636.800781 672.445312 C 636.492188 672.257812 636.175781 672.085938 635.859375 671.910156 " fill-opacity="1" fill-rule="nonzero"/><path fill="#d4a35c" d="M 631.882812 669.976562 C 632.234375 670.113281 632.574219 670.253906 632.917969 670.410156 C 632.574219 670.253906 632.234375 670.113281 631.882812 669.976562 " fill-opacity="1" fill-rule="nonzero"/><path fill="#d4a35c" d="M 623.359375 667.710938 C 623.683594 667.753906 624.007812 667.804688 624.332031 667.859375 C 624.007812 667.804688 623.683594 667.753906 623.359375 667.710938 " fill-opacity="1" fill-rule="nonzero"/><path fill="#d4a35c" d="M 627.710938 668.574219 C 628.066406 668.664062 628.414062 668.761719 628.761719 668.871094 C 628.414062 668.761719 628.066406 668.664062 627.710938 668.574219 " fill-opacity="1" fill-rule="nonzero"/><path fill="#d4a35c" d="M 625.558594 668.070312 C 625.902344 668.140625 626.242188 668.21875 626.59375 668.296875 C 626.242188 668.21875 625.90625 668.140625 625.558594 668.070312 " fill-opacity="1" fill-rule="nonzero"/><path fill="#d4a35c" d="M 637.816406 673.105469 C 638.277344 673.414062 638.726562 673.726562 639.171875 674.054688 C 638.726562 673.726562 638.277344 673.414062 637.816406 673.105469 " fill-opacity="1" fill-rule="nonzero"/><path fill="#d4a35c" d="M 629.824219 669.207031 C 630.179688 669.324219 630.527344 669.449219 630.871094 669.578125 C 630.527344 669.449219 630.179688 669.324219 629.824219 669.207031 " fill-opacity="1" fill-rule="nonzero"/><path fill="#d4a35c" d="M 618.910156 736.121094 C 624.421875 736.121094 629.925781 734.765625 634.835938 732.1875 C 642.960938 727.929688 648.945312 720.753906 651.675781 711.992188 C 654.410156 703.238281 653.570312 693.9375 649.304688 685.808594 C 648.757812 684.777344 648.148438 683.78125 647.515625 682.816406 C 647.820312 683.355469 647.921875 683.988281 647.789062 684.59375 C 647.632812 685.261719 647.210938 685.835938 646.625 686.179688 C 646.144531 686.457031 645.660156 686.734375 645.171875 686.992188 C 644.9375 687.109375 644.699219 687.210938 644.464844 687.335938 C 644.613281 687.59375 644.769531 687.851562 644.910156 688.117188 C 648.554688 695.070312 649.28125 703.023438 646.941406 710.511719 C 644.601562 718.007812 639.484375 724.148438 632.53125 727.792969 C 628.332031 729.996094 623.621094 731.160156 618.910156 731.160156 C 607.929688 731.160156 597.953125 725.128906 592.859375 715.417969 C 589.210938 708.464844 588.492188 700.511719 590.824219 693.015625 C 592.796875 686.703125 596.757812 681.371094 602.113281 677.660156 C 601.609375 677.015625 601.125 676.355469 600.667969 675.671875 C 600.292969 675.101562 600.164062 674.402344 600.3125 673.738281 C 600.433594 673.203125 600.746094 672.730469 601.164062 672.382812 C 593.953125 676.722656 588.617188 683.429688 586.089844 691.535156 C 583.355469 700.296875 584.203125 709.597656 588.460938 717.71875 C 594.417969 729.070312 606.082031 736.121094 618.910156 736.121094 " fill-opacity="1" fill-rule="nonzero"/><path fill="#d4a35c" d="M 646.476562 681.324219 C 646.695312 681.621094 646.914062 681.925781 647.128906 682.234375 C 646.914062 681.925781 646.695312 681.621094 646.476562 681.324219 " fill-opacity="1" fill-rule="nonzero"/><path fill="#d4a35c" d="M 645.789062 680.425781 C 645.558594 680.136719 645.324219 679.84375 645.085938 679.5625 C 645.324219 679.84375 645.558594 680.136719 645.789062 680.425781 " fill-opacity="1" fill-rule="nonzero"/><path fill="#d4a35c" d="M 641.117188 675.59375 C 640.859375 675.367188 640.601562 675.140625 640.335938 674.921875 C 640.601562 675.140625 640.859375 675.367188 641.117188 675.59375 " fill-opacity="1" fill-rule="nonzero"/><path fill="#d4a35c" d="M 642.785156 677.105469 C 642.527344 676.851562 642.273438 676.601562 642.011719 676.363281 C 642.273438 676.601562 642.527344 676.851562 642.785156 677.105469 " fill-opacity="1" fill-rule="nonzero"/><path fill="#d4a35c" d="M 643.601562 677.90625 C 643.851562 678.171875 644.089844 678.441406 644.34375 678.714844 C 644.089844 678.441406 643.851562 678.171875 643.601562 677.90625 " fill-opacity="1" fill-rule="nonzero"/><path fill="#d4a35c" d="M 606.4375 675.140625 C 610.328125 673.324219 614.59375 672.375 618.851562 672.375 C 627.773438 672.375 636.117188 676.367188 641.660156 683.191406 C 637.769531 685.007812 633.507812 685.957031 629.25 685.957031 C 620.324219 685.957031 611.988281 681.964844 606.4375 675.140625 Z M 600.3125 673.738281 C 600.164062 674.402344 600.292969 675.101562 600.667969 675.671875 C 601.125 676.355469 601.609375 677.015625 602.113281 677.660156 C 608.589844 686.003906 618.554688 690.921875 629.25 690.921875 C 634.496094 690.921875 639.734375 689.671875 644.464844 687.335938 C 644.699219 687.210938 644.9375 687.109375 645.171875 686.992188 C 645.660156 686.734375 646.144531 686.457031 646.625 686.179688 C 647.210938 685.835938 647.632812 685.261719 647.789062 684.59375 C 647.921875 683.988281 647.820312 683.355469 647.515625 682.816406 L 647.433594 682.664062 L 647.128906 682.234375 C 646.914062 681.925781 646.695312 681.621094 646.476562 681.324219 C 646.25 681.019531 646.023438 680.722656 645.789062 680.425781 C 645.558594 680.136719 645.324219 679.84375 645.085938 679.5625 C 644.839844 679.277344 644.59375 678.992188 644.34375 678.714844 C 644.089844 678.441406 643.851562 678.171875 643.601562 677.90625 C 643.335938 677.636719 643.058594 677.371094 642.785156 677.105469 C 642.527344 676.851562 642.273438 676.601562 642.011719 676.363281 C 641.71875 676.097656 641.421875 675.84375 641.117188 675.59375 C 640.859375 675.367188 640.601562 675.140625 640.335938 674.921875 C 639.957031 674.625 639.566406 674.339844 639.171875 674.054688 C 638.726562 673.726562 638.277344 673.414062 637.816406 673.105469 C 637.480469 672.886719 637.144531 672.660156 636.800781 672.445312 C 636.492188 672.257812 636.175781 672.085938 635.859375 671.910156 C 635.542969 671.722656 635.21875 671.542969 634.894531 671.367188 C 634.566406 671.191406 634.230469 671.039062 633.894531 670.875 C 633.570312 670.714844 633.246094 670.554688 632.917969 670.410156 C 632.574219 670.253906 632.234375 670.113281 631.882812 669.976562 C 631.546875 669.835938 631.210938 669.699219 630.871094 669.578125 C 630.527344 669.449219 630.179688 669.324219 629.824219 669.207031 C 629.472656 669.085938 629.117188 668.976562 628.761719 668.871094 C 628.414062 668.761719 628.066406 668.664062 627.710938 668.574219 C 627.339844 668.472656 626.96875 668.382812 626.59375 668.296875 C 626.242188 668.21875 625.902344 668.140625 625.558594 668.070312 C 625.152344 667.992188 624.742188 667.921875 624.332031 667.859375 C 624.007812 667.804688 623.683594 667.753906 623.359375 667.710938 C 622.890625 667.644531 622.417969 667.605469 621.941406 667.5625 C 621.667969 667.542969 621.398438 667.503906 621.125 667.488281 C 620.390625 667.4375 619.644531 667.414062 618.894531 667.414062 L 618.851562 667.414062 C 614.855469 667.414062 610.855469 668.136719 607.089844 669.511719 C 605.667969 670.035156 604.277344 670.636719 602.933594 671.347656 L 602.902344 671.359375 C 602.417969 671.617188 601.941406 671.882812 601.472656 672.15625 L 601.164062 672.382812 C 600.746094 672.730469 600.433594 673.203125 600.3125 673.738281 " fill-opacity="1" fill-rule="nonzero"/><path fill="#d4a35c" d="M 614.554688 824.335938 L 707.28125 824.335938 L 700.738281 936.792969 L 621.144531 936.792969 Z M 705.453125 819.371094 L 611.921875 819.371094 C 611.644531 819.371094 611.375 819.429688 611.109375 819.519531 C 610.742188 819.648438 610.398438 819.855469 610.121094 820.152344 C 609.648438 820.652344 609.410156 821.316406 609.449219 822 L 616.324219 939.421875 C 616.402344 940.734375 617.488281 941.753906 618.804688 941.753906 L 703.082031 941.753906 C 704.394531 941.753906 705.480469 940.734375 705.558594 939.421875 L 712.386719 821.996094 C 712.425781 821.316406 712.1875 820.652344 711.714844 820.152344 C 711.4375 819.855469 711.09375 819.648438 710.726562 819.519531 C 710.460938 819.429688 710.191406 819.371094 709.914062 819.371094 L 705.453125 819.371094 " fill-opacity="1" fill-rule="nonzero"/><g clip-path="url(#cca3f30b06)"><path fill="#d4a35c" d="M 643.414062 1029.273438 L 607.058594 1029.273438 C 603.8125 1029.273438 601.171875 1026.636719 601.171875 1023.386719 C 601.171875 1020.144531 603.8125 1017.507812 607.058594 1017.507812 L 643.414062 1017.507812 C 646.664062 1017.507812 649.300781 1020.144531 649.300781 1023.386719 C 649.300781 1026.636719 646.664062 1029.273438 643.414062 1029.273438 Z M 649.886719 1014.703125 C 648.078125 1013.351562 645.84375 1012.546875 643.414062 1012.546875 L 607.058594 1012.546875 C 601.082031 1012.546875 596.207031 1017.410156 596.207031 1023.386719 C 596.207031 1029.371094 601.082031 1034.238281 607.058594 1034.238281 L 643.414062 1034.238281 C 648.078125 1034.238281 652.050781 1031.277344 653.582031 1027.144531 C 654.015625 1025.972656 654.261719 1024.714844 654.261719 1023.386719 C 654.261719 1019.839844 652.535156 1016.6875 649.886719 1014.703125 " fill-opacity="1" fill-rule="nonzero"/></g><g clip-path="url(#05ccd75dc9)"><path fill="#d4a35c" d="M 719.488281 1023.386719 C 719.488281 1026.636719 716.847656 1029.273438 713.601562 1029.273438 L 677.246094 1029.273438 C 673.996094 1029.273438 671.359375 1026.636719 671.359375 1023.386719 C 671.359375 1020.144531 673.996094 1017.507812 677.246094 1017.507812 L 713.601562 1017.507812 C 716.847656 1017.507812 719.488281 1020.144531 719.488281 1023.386719 Z M 689.839844 1012.546875 L 677.246094 1012.546875 C 675.320312 1012.546875 673.519531 1013.050781 671.949219 1013.933594 C 669.636719 1015.234375 667.859375 1017.351562 666.984375 1019.890625 C 666.609375 1020.992188 666.398438 1022.167969 666.398438 1023.386719 C 666.398438 1029.371094 671.265625 1034.238281 677.246094 1034.238281 L 713.601562 1034.238281 C 719.585938 1034.238281 724.453125 1029.371094 724.453125 1023.386719 C 724.453125 1017.410156 719.585938 1012.546875 713.601562 1012.546875 L 689.839844 1012.546875 " fill-opacity="1" fill-rule="nonzero"/></g><path fill="#d4a35c" d="M 634.765625 771.378906 C 635.386719 771.378906 635.988281 771.566406 636.511719 771.910156 L 657.9375 786.113281 C 658.636719 786.578125 659.121094 787.289062 659.289062 788.113281 C 659.453125 788.910156 659.300781 789.722656 658.875 790.410156 L 658.714844 790.609375 C 658.261719 791.230469 658.121094 792.042969 658.339844 792.785156 L 658.40625 792.988281 C 658.644531 793.628906 659.140625 794.136719 659.769531 794.402344 C 660.402344 794.667969 661.113281 794.660156 661.738281 794.382812 L 751.96875 754.234375 L 751.585938 778.195312 L 656.699219 804.398438 C 656.257812 804.515625 655.863281 804.753906 655.554688 805.085938 C 653.039062 807.738281 649.582031 809.128906 645.953125 808.949219 L 634.734375 808.386719 C 631.433594 808.21875 628.386719 806.777344 626.171875 804.328125 C 623.949219 801.871094 622.820312 798.707031 622.988281 795.402344 C 623.304688 789.039062 628.335938 783.984375 634.6875 783.65625 C 635.753906 783.597656 636.667969 782.867188 636.949219 781.835938 C 637.234375 780.800781 636.820312 779.703125 635.929688 779.105469 L 633.015625 777.175781 C 632.3125 776.710938 631.832031 776 631.664062 775.171875 C 631.496094 774.34375 631.660156 773.503906 632.125 772.800781 C 632.710938 771.914062 633.699219 771.378906 634.765625 771.378906 Z M 755.8125 781.78125 L 756.03125 781.550781 L 756.25 781.15625 L 756.378906 780.878906 C 756.4375 780.710938 756.457031 780.535156 756.476562 780.355469 L 756.515625 780.132812 L 756.996094 750.421875 C 757 749.875 756.8125 749.355469 756.496094 748.921875 C 756.324219 748.691406 756.128906 748.476562 755.882812 748.316406 C 755.179688 747.851562 754.28125 747.773438 753.503906 748.117188 L 751.042969 749.214844 L 735.417969 756.167969 L 730.636719 758.292969 L 698.984375 772.375 L 697.09375 773.21875 L 692.277344 775.359375 L 664.257812 787.832031 C 664.234375 787.589844 664.199219 787.359375 664.148438 787.125 C 663.714844 785 662.480469 783.171875 660.679688 781.976562 L 642.40625 769.859375 L 627.042969 772.121094 C 626.632812 773.414062 626.519531 774.789062 626.800781 776.160156 C 627.089844 777.601562 627.753906 778.914062 628.71875 779.980469 C 625.234375 781.414062 622.359375 783.964844 620.460938 787.179688 C 619.511719 788.789062 618.785156 790.542969 618.386719 792.445312 C 618.203125 793.324219 618.074219 794.226562 618.03125 795.152344 C 617.984375 796.109375 618.03125 797.050781 618.132812 797.988281 C 618.4375 800.695312 619.375 803.28125 620.886719 805.554688 C 621.371094 806.285156 621.894531 806.996094 622.488281 807.65625 C 625.597656 811.09375 629.863281 813.109375 634.488281 813.34375 L 639.753906 813.609375 L 645.699219 813.90625 C 645.996094 813.917969 646.289062 813.925781 646.578125 813.925781 C 647.398438 813.925781 648.21875 813.847656 649.027344 813.722656 C 652.628906 813.207031 656.019531 811.566406 658.65625 809.007812 L 690.585938 800.1875 L 696.457031 798.5625 L 698.488281 798 L 703.277344 796.683594 L 754.695312 782.488281 L 754.824219 782.421875 L 755.199219 782.253906 L 755.339844 782.191406 L 755.496094 782.078125 L 755.8125 781.78125 " fill-opacity="1" fill-rule="nonzero"/><path fill="#d4a35c" d="M 570.832031 775.378906 L 570.445312 751.109375 L 638.445312 753.539062 C 639.308594 753.570312 640.085938 753.167969 640.5625 752.476562 C 641.046875 751.785156 641.144531 750.902344 640.828125 750.117188 C 640.257812 748.734375 640.757812 747.125 642.011719 746.300781 L 663.433594 732.097656 C 664.851562 731.160156 666.890625 731.585938 667.820312 732.980469 C 668.554688 734.09375 668.496094 735.558594 667.683594 736.632812 C 667.140625 737.34375 667.023438 738.285156 667.375 739.109375 C 667.722656 739.929688 668.484375 740.496094 669.371094 740.601562 C 675.394531 741.304688 679.980469 746.210938 680.285156 752.265625 C 680.453125 755.566406 679.320312 758.734375 677.097656 761.1875 C 674.882812 763.636719 671.839844 765.078125 668.535156 765.246094 L 657.320312 765.808594 C 654.953125 765.925781 652.621094 765.355469 650.566406 764.179688 C 650.082031 763.902344 649.511719 763.796875 648.96875 763.875 Z M 657.570312 770.765625 L 668.789062 770.203125 C 673.414062 769.96875 677.675781 767.953125 680.78125 764.515625 C 683.890625 761.078125 685.472656 756.640625 685.242188 752.011719 C 684.871094 744.632812 679.953125 738.472656 673.132812 736.34375 C 673.558594 734.273438 673.171875 732.070312 671.957031 730.242188 C 670.449219 727.96875 667.917969 726.605469 665.175781 726.605469 C 663.582031 726.605469 662.03125 727.074219 660.691406 727.960938 L 639.269531 742.15625 C 637.085938 743.605469 635.792969 745.984375 635.644531 748.472656 L 595.011719 747.023438 L 589.269531 746.816406 L 573.457031 746.253906 L 568.007812 746.054688 C 567.769531 746.046875 567.550781 746.082031 567.328125 746.132812 C 566.898438 746.234375 566.503906 746.449219 566.179688 746.765625 C 565.695312 747.242188 565.421875 747.894531 565.4375 748.574219 L 565.5 752.445312 L 565.664062 762.550781 L 565.757812 768.414062 L 565.914062 778.285156 C 565.925781 778.996094 566.242188 779.675781 566.792969 780.132812 C 567.238281 780.523438 567.8125 780.730469 568.394531 780.730469 L 568.757812 780.695312 L 571.535156 780.289062 L 576.640625 779.539062 L 577.851562 779.359375 L 584.804688 778.339844 L 590.011719 777.570312 L 605.972656 775.222656 L 611.347656 774.429688 L 627.042969 772.121094 L 642.40625 769.859375 L 648.878906 768.910156 C 651.5625 770.265625 654.539062 770.90625 657.570312 770.765625 " fill-opacity="1" fill-rule="nonzero"/></svg>