<svg xmlns="http://www.w3.org/2000/svg" xmlns:xlink="http://www.w3.org/1999/xlink" width="2000" zoomAndPan="magnify" viewBox="0 0 1500 1499.999933" height="2000" preserveAspectRatio="xMidYMid meet" version="1.0"><path fill="#d4a35c" d="M 767.179688 986.445312 C 758.332031 1034.222656 713.800781 1050 681.21875 1042.109375 C 645.738281 1033.539062 614.351562 1006.492188 580.851562 962.402344 C 561.007812 936.277344 516.066406 864.832031 516.167969 797.417969 C 516.269531 734.855469 570.296875 702 597.71875 689.980469 C 651.609375 666.347656 699.660156 682.601562 717.796875 712.792969 C 750.035156 766.546875 686.957031 816.613281 707.140625 860.90625 C 729.78125 910.664062 777.355469 931.699219 767.210938 986.410156 Z M 699.523438 652.175781 C 712.433594 645.992188 714.789062 631.070312 715.984375 623.726562 C 718.71875 606.925781 711.683594 574.207031 684.90625 574.207031 C 655.949219 574.207031 643.449219 615.15625 653.660156 637.660156 C 661.617188 655.144531 683.335938 659.890625 699.523438 652.140625 Z M 611.859375 645.34375 C 625.246094 646.128906 634.058594 631.308594 629.070312 613.035156 C 624.085938 594.800781 613.941406 589.644531 603.59375 591.113281 C 591.503906 592.820312 582.148438 602.550781 589.011719 623.417969 C 592.425781 633.800781 602.398438 644.796875 611.859375 645.34375 Z M 568.828125 668.226562 C 578.972656 664.023438 582.316406 650.5 577.265625 636.429688 C 574.121094 627.6875 563.195312 615.597656 549.429688 621.371094 C 535.632812 627.140625 535.222656 641.859375 539.015625 651.046875 C 543.25 661.328125 557.320312 673.007812 568.828125 668.226562 Z M 535.703125 692.847656 C 542.226562 683.285156 536.792969 665.9375 522.757812 659.277344 C 508.859375 652.6875 496.632812 661.085938 493.320312 672.324219 C 489.90625 683.796875 498.988281 692.027344 508.757812 696.261719 C 518.523438 700.496094 531.125 699.542969 535.703125 692.847656 Z M 496.292969 706.167969 C 488.503906 702.101562 476.894531 704.527344 473.34375 714.226562 C 469.996094 723.378906 475.253906 734 486.082031 736.1875 C 499.332031 738.882812 508.277344 733.964844 508.3125 726.109375 C 508.3125 720.578125 506.023438 711.222656 496.257812 706.132812 Z M 496.292969 706.167969 " fill-opacity="1" fill-rule="nonzero"/><path fill="#d4a35c" d="M 845.484375 740.488281 C 851.324219 692.164062 776.089844 663.476562 790.605469 602.519531 C 798.769531 568.265625 839.648438 538.246094 898.179688 544.496094 C 927.960938 547.671875 989.398438 562.664062 1008.386719 622.292969 C 1028.84375 686.496094 1007.601562 768.183594 996.535156 799.09375 C 977.890625 851.242188 956.136719 886.519531 924.921875 905.40625 C 896.234375 922.753906 849.003906 921.148438 826.15625 878.289062 C 799.964844 829.179688 838.964844 794.753906 845.519531 740.488281 Z M 828.992188 511.539062 C 831.960938 486.984375 807.648438 451.742188 780.054688 460.484375 C 754.542969 468.542969 757.683594 501.875 765.367188 517.074219 C 768.714844 523.699219 775.476562 537.222656 789.648438 539.203125 C 807.40625 541.695312 826.703125 530.628906 828.992188 511.539062 Z M 886.332031 478.414062 C 886.570312 456.488281 874.71875 450 862.699219 452.015625 C 852.386719 453.757812 844.292969 461.714844 845.042969 480.597656 C 845.792969 499.484375 858.667969 510.992188 871.203125 506.179688 C 880.046875 502.796875 886.230469 489.308594 886.363281 478.378906 Z M 942.371094 489.648438 C 943.191406 479.710938 938.378906 465.8125 923.488281 464.480469 C 908.597656 463.148438 901.871094 477.96875 901.492188 487.257812 C 900.914062 502.21875 908.1875 514.066406 919.117188 515.023438 C 931.546875 516.117188 941.449219 500.714844 942.371094 489.648438 Z M 984.824219 523.628906 C 992.847656 516.628906 999.03125 506.042969 992.300781 496.136719 C 985.746094 486.4375 971.570312 482.136719 960.300781 492.585938 C 948.929688 503.171875 948.964844 521.375 958.082031 528.511719 C 964.46875 533.5 976.761719 530.628906 984.789062 523.628906 Z M 994.28125 551.976562 C 996.671875 559.421875 1006.714844 561.402344 1018.53125 554.84375 C 1028.195312 549.480469 1030.003906 537.769531 1024.0625 530.050781 C 1017.746094 521.855469 1005.960938 523.050781 999.746094 529.296875 C 991.996094 537.085938 992.609375 546.714844 994.316406 551.976562 Z M 994.28125 551.976562 " fill-opacity="1" fill-rule="nonzero"/></svg>