<svg xmlns="http://www.w3.org/2000/svg" xmlns:xlink="http://www.w3.org/1999/xlink" width="2000" zoomAndPan="magnify" viewBox="0 0 1500 1499.999933" height="2000" preserveAspectRatio="xMidYMid meet" version="1.0"><defs><clipPath id="140099fb4f"><path d="M 528.546875 450 L 971.796875 450 L 971.796875 1050 L 528.546875 1050 Z M 528.546875 450 " clip-rule="nonzero"/></clipPath></defs><g clip-path="url(#140099fb4f)"><path fill="#d4a35c" d="M 626.382812 854.6875 L 565.292969 990.679688 C 564.125 993.28125 564.464844 996.308594 566.183594 998.582031 C 567.902344 1000.855469 570.722656 1002.011719 573.539062 1001.597656 L 637.367188 992.234375 C 637.367188 992.234375 672.761719 1046.167969 672.761719 1046.167969 C 674.324219 1048.546875 677.0625 1049.890625 679.902344 1049.664062 C 682.742188 1049.4375 685.234375 1047.683594 686.398438 1045.082031 L 749.933594 903.652344 L 813.464844 1045.082031 C 814.632812 1047.683594 817.121094 1049.4375 819.960938 1049.664062 C 822.800781 1049.890625 825.539062 1048.546875 827.101562 1046.167969 L 862.496094 992.234375 C 862.496094 992.234375 926.324219 1001.597656 926.324219 1001.597656 C 929.144531 1002.011719 931.964844 1000.855469 933.679688 998.582031 C 935.398438 996.308594 935.738281 993.28125 934.574219 990.679688 L 873.484375 854.6875 C 932.398438 814.921875 971.171875 747.542969 971.171875 671.175781 C 971.171875 549.070312 872.039062 449.9375 749.933594 449.9375 C 627.828125 449.9375 528.691406 549.070312 528.691406 671.175781 C 528.691406 747.542969 567.464844 814.921875 626.382812 854.6875 Z M 860.125 863.027344 C 830.910156 879.855469 797.496094 890.203125 761.847656 892.101562 L 821.863281 1025.710938 L 852.183594 979.511719 C 853.847656 976.976562 856.832031 975.632812 859.835938 976.074219 C 859.835938 976.074219 914.507812 984.09375 914.507812 984.09375 Z M 639.738281 863.027344 L 585.355469 984.09375 L 640.027344 976.074219 C 643.03125 975.632812 646.015625 976.976562 647.679688 979.511719 C 647.679688 979.511719 678 1025.710938 678 1025.710938 L 738.015625 892.101562 C 702.371094 890.207031 668.949219 879.859375 639.738281 863.027344 Z M 749.933594 465.539062 C 863.425781 465.539062 955.570312 557.683594 955.570312 671.175781 C 955.570312 784.671875 863.425781 876.816406 749.933594 876.816406 C 636.4375 876.816406 544.292969 784.671875 544.292969 671.175781 C 544.292969 557.683594 636.4375 465.539062 749.933594 465.539062 Z M 749.933594 487.160156 C 648.371094 487.160156 565.917969 569.617188 565.917969 671.175781 C 565.917969 772.738281 648.371094 855.191406 749.933594 855.191406 C 851.492188 855.191406 933.949219 772.738281 933.949219 671.175781 C 933.949219 569.617188 851.492188 487.160156 749.933594 487.160156 Z M 749.933594 502.765625 C 842.882812 502.765625 918.34375 578.226562 918.34375 671.175781 C 918.34375 764.125 842.882812 839.589844 749.933594 839.589844 C 656.984375 839.589844 581.519531 764.125 581.519531 671.175781 C 581.519531 578.226562 656.984375 502.765625 749.933594 502.765625 Z M 757.027344 543.042969 C 755.757812 540.265625 752.984375 538.484375 749.933594 538.484375 C 746.878906 538.484375 744.105469 540.265625 742.835938 543.042969 L 709.683594 615.570312 C 709.683594 615.570312 630.460938 624.6875 630.460938 624.6875 C 627.425781 625.039062 624.875 627.125 623.933594 630.027344 C 622.988281 632.933594 623.824219 636.117188 626.074219 638.183594 L 684.808594 692.128906 C 684.808594 692.128906 669 770.292969 669 770.292969 C 668.394531 773.285156 669.589844 776.355469 672.0625 778.148438 C 674.53125 779.945312 677.820312 780.132812 680.480469 778.632812 L 749.933594 739.445312 C 749.933594 739.445312 819.382812 778.632812 819.382812 778.632812 C 822.042969 780.132812 825.332031 779.945312 827.804688 778.148438 C 830.273438 776.355469 831.472656 773.285156 830.867188 770.292969 L 815.058594 692.128906 C 815.058594 692.128906 873.789062 638.183594 873.789062 638.183594 C 876.039062 636.117188 876.875 632.933594 875.933594 630.027344 C 874.988281 627.125 872.4375 625.039062 869.402344 624.6875 L 790.179688 615.570312 C 790.179688 615.570312 757.027344 543.042969 757.027344 543.042969 Z M 749.933594 565.050781 L 777.820312 626.058594 C 778.957031 628.542969 781.308594 630.253906 784.023438 630.566406 L 850.667969 638.238281 C 850.667969 638.238281 801.261719 683.613281 801.261719 683.613281 C 799.25 685.460938 798.351562 688.230469 798.890625 690.90625 L 812.1875 756.65625 C 812.1875 756.65625 753.765625 723.691406 753.765625 723.691406 C 751.386719 722.351562 748.476562 722.351562 746.097656 723.691406 L 687.675781 756.65625 C 687.675781 756.65625 700.972656 690.90625 700.972656 690.90625 C 701.515625 688.230469 700.617188 685.460938 698.601562 683.613281 L 649.199219 638.238281 C 649.199219 638.238281 715.839844 630.566406 715.839844 630.566406 C 718.554688 630.253906 720.90625 628.542969 722.042969 626.058594 Z M 749.933594 565.050781 " fill-opacity="1" fill-rule="evenodd"/></g></svg>