<svg xmlns="http://www.w3.org/2000/svg" xmlns:xlink="http://www.w3.org/1999/xlink" width="2000" zoomAndPan="magnify" viewBox="0 0 1500 1499.999933" height="2000" preserveAspectRatio="xMidYMid meet" version="1.0"><path fill="#091a2b" d="M 648.703125 799.84375 L 650.109375 799.492188 L 650.390625 800.195312 Z M 1017.679688 757.703125 C 1016.648438 759.132812 1017.140625 758.851562 1015.453125 758.382812 C 1016.039062 757.773438 1015.453125 757.703125 1017.679688 757.703125 Z M 666.257812 803.078125 C 666.257812 802.796875 666.257812 802.492188 666.257812 802.210938 C 669.867188 802.210938 673.5 802.210938 677.109375 802.210938 C 677.109375 802.492188 677.109375 802.796875 677.109375 803.078125 C 673.5 803.078125 669.890625 803.078125 666.257812 803.078125 Z M 992.179688 785.640625 C 985.054688 786.859375 992.8125 786.648438 963.023438 786.648438 C 972.867188 781.679688 979.335938 781.65625 992.179688 785.640625 Z M 523.710938 715.28125 C 505.96875 715.84375 502.617188 714.484375 485.015625 722.570312 C 480.960938 724.421875 475.96875 728.5 476.4375 731.148438 C 477.398438 736.375 472.007812 739.515625 470.507812 743.59375 C 474.445312 745.679688 477.914062 747.53125 484.335938 750.953125 C 477.351562 750.953125 473.929688 751.421875 470.929688 750.859375 C 464.203125 749.59375 463.570312 753.34375 461.0625 756.132812 C 464.367188 757.867188 467.695312 759.648438 472.171875 762.015625 C 464.507812 763.492188 458.53125 764.640625 451.945312 765.90625 C 457.335938 770.054688 464.742188 770.757812 468.960938 775.398438 C 463.242188 776.101562 458.226562 776.734375 450 777.765625 C 466.382812 778.609375 466.195312 778.726562 474.632812 785.21875 C 477.164062 787.164062 480.679688 788.804688 484.195312 789.742188 C 486.960938 790.46875 507.09375 795.578125 510.65625 793.5625 C 516.46875 790.28125 517.476562 791.875 566.71875 800.289062 C 604.265625 806.734375 651.140625 809.195312 665.859375 809.804688 C 709.710938 811.679688 692.882812 802.492188 714.351562 804.976562 C 734.53125 807.296875 768.84375 802.609375 772.054688 802.75 C 777.070312 802.9375 781.898438 804.8125 786.914062 805.585938 C 790.125 806.078125 793.546875 805.820312 796.875 805.984375 C 813.609375 806.804688 829.875 804.273438 846.75 803.148438 C 845.296875 801.25 844.335938 800.007812 842.765625 797.945312 C 987.539062 795.625 838.523438 796.351562 1006.054688 794.195312 C 1010.90625 794.148438 1016.554688 793.632812 1019.226562 789.203125 C 1016.320312 788.03125 1014.117188 787.164062 1012.429688 786.460938 C 1021.78125 781.257812 1032.585938 790.164062 1044.023438 785.734375 C 1037.296875 780.390625 1027.3125 783.25 1021.3125 779.40625 C 1014.726562 775.164062 1005.585938 776.40625 994.03125 774.53125 C 1009.875 770.476562 1022.132812 767.335938 1034.929688 764.078125 C 1033.945312 761.6875 1033.828125 759.671875 1032.398438 758.3125 C 1027.359375 753.53125 1020.679688 752.429688 1021.289062 744.109375 C 1021.335938 743.335938 1024.992188 742.65625 1027.03125 741.929688 C 1023.796875 736.375 1024.382812 738.601562 1024.382812 733.492188 C 1039.242188 726.25 1039.242188 726.25 1043.296875 718.726562 C 1028.554688 715.140625 1013.25 713.898438 997.59375 713.945312 C 1014.703125 709.304688 1026.773438 709.9375 1029.140625 701.3125 C 1001.34375 702.671875 975.023438 699.25 948.539062 696.789062 C 939.28125 695.945312 929.367188 697 920.625 695.195312 C 908.671875 692.734375 896.765625 692.476562 884.835938 692.898438 C 815.742188 695.382812 793.875 703.351562 757.054688 700.539062 C 743.953125 699.53125 715.898438 698.453125 703.054688 699.8125 C 667.289062 703.609375 642.84375 691.304688 629.0625 690.789062 C 616.40625 690.34375 603.679688 690.203125 591.070312 689.335938 C 566.71875 687.648438 544.078125 696.25 519.75 694.796875 C 518.53125 694.726562 516.984375 697.234375 513.398438 700.585938 C 526.335938 698.96875 535.640625 700.140625 547.828125 703.210938 C 536.484375 704.851562 528.234375 706.070312 519.117188 707.40625 C 523.710938 712.632812 522.398438 710.523438 523.710938 715.28125 " fill-opacity="1" fill-rule="nonzero"/><path fill="#091a2b" d="M 1028.90625 772.351562 L 1027.289062 772 L 1028.648438 771.625 Z M 1028.90625 772.351562 " fill-opacity="1" fill-rule="nonzero"/><path fill="#091a2b" d="M 1050 772.164062 C 1047.820312 772.796875 1048.640625 772.820312 1046.882812 771.929688 C 1047.914062 772 1048.96875 772.09375 1050 772.164062 " fill-opacity="1" fill-rule="nonzero"/></svg>